<?xml version="1.0" encoding="utf-8"?>
<!-- Generator: Adobe Illustrator 24.0.3, SVG Export Plug-In . SVG Version: 6.00 Build 0)  -->
<svg version="1.1" id="Layer_1" xmlns="http://www.w3.org/2000/svg" xmlns:xlink="http://www.w3.org/1999/xlink" x="0px" y="0px"
	 viewBox="0 0 149 25" style="enable-background:new 0 0 149 25;" xml:space="preserve">
<style type="text/css">
	.st0{fill-rule:evenodd;clip-rule:evenodd;fill:#FFFFFF;}
</style>
<g>
	<path class="st0" d="M24.1,14.8v5.9c0,0.8,0.4,1.4,0.6,1.5c-3.1,1.7-8.2,2.7-11,2.7C6.4,24.9,0,20.1,0,12.5C0,6.4,4.8,0,14.1,0
		c3,0,5.7,0.7,8.6,1.9L23,7.5c-2-5-6.8-5.8-8.5-5.8C7.9,1.7,4.3,6.3,4.3,12c0,5,2.6,11.1,10.2,11.1c0.9,0,3.4-0.1,5.5-1.4v-6.8h-3.9
		v-0.1c0-0.8-0.4-1.3-1-1.7H25C24.5,13.5,24.1,14,24.1,14.8"/>
	<path class="st0" d="M68.7,25c0.7-0.3,1-0.7,1-1.2c0-0.2-0.1-0.3-0.1-0.6c-0.2-0.4-1.6-3.6-2.7-6.1h-8.1c-1.1,2.6-2.4,5.7-2.5,6.1
		c-0.1,0.3-0.1,0.5-0.1,0.7c0,0.5,0.3,0.8,0.9,1H52c1-0.7,1.4-1,1.7-1.7C54.4,21.9,63.9,0,63.9,0s9.7,21.9,10.2,23.3
		c0.4,0.8,0.6,1.1,1.9,1.7H68.7z M66.3,15.4c-1.9-4.3-3.4-8-3.4-8s-2,4.7-3.4,8H66.3z"/>
	<path class="st0" d="M87.4,25H79c0.6-0.3,1-0.8,1-1.6V2.6c0-0.8-0.4-1.3-1-1.6h7.4c2.5,0,8.3,0.8,8.3,5.5c0,4.3-4.9,5.6-4.9,5.6
		s7.2,0.5,7.2,6.3C97.1,21.1,95,25,87.4,25 M90.9,6.8c0-2.8-2.3-4.3-4.8-4.3c-1.3,0-2.1,0.1-2.1,0.1v8.8c0,0,0.6,0.1,1.3,0.1
		C87.3,11.5,90.9,10.9,90.9,6.8 M86.6,13.1c-0.9,0-2.5,0.1-2.5,0.1v10.1c0,0,0.6,0.1,1.4,0.1c2.6,0,7.3-0.7,7.3-5.4
		C92.7,14.1,89.6,13.1,86.6,13.1"/>
	<path class="st0" d="M118.1,25H103c0.6-0.3,1.1-0.8,1.1-1.6V2.6c0-0.8-0.5-1.3-1.1-1.6h14.2l0.1,2.9c-0.7-0.8-1.5-1.2-2.9-1.2
		c-0.9,0-6.3-0.1-6.3-0.1V12h5.7c0.5,0,1.1-0.6,1.3-1v3.7c-0.2-0.5-0.8-1-1.3-1h-5.7v9.4c0.7,0.1,2.3,0.2,4,0.2h0.5
		c3.6-0.1,5,0,6.3-2.3L118.1,25z"/>
	<path class="st0" d="M140.4,25L140.4,25c-1.4,0-2.4-0.9-3-1.7c-1.7-2.5-3.1-5-4.3-7c-0.9-1.4-1.7-3-3.4-3c-0.6,0-1.8,0.1-1.8,0.1
		v10c0,0.8,0.4,1.3,1,1.6H123c0.6-0.4,1-0.9,1-1.6V1.6c0-0.9-0.4-1.4-1-1.6h7.1c7.2,0,8.7,3.7,8.7,6.2c0,3.9-3.6,6.2-6,6.2
		c2.1,0.2,3,1.9,3.5,2.7c0,0,4,6.8,5.4,8.5c0.8,0.9,2.3,1.4,2.3,1.4L140.4,25z M130.2,1.6c-1.3,0-2.3,0.1-2.3,0.1v9.8
		c0,0,1,0.1,1.8,0.1c2.5,0,5.2-1.6,5.2-5.3C134.8,4.6,133.7,1.6,130.2,1.6z"/>
	<path class="st0" d="M48.4,25L48.4,25c-1.4,0-2.4-0.9-3-1.7c-1.7-2.5-3.1-5-4.3-7c-0.9-1.4-1.7-3-3.4-3c-0.6,0-1.8,0.1-1.8,0.1v10
		c0,0.8,0.4,1.3,1,1.6H31c0.6-0.4,1-0.9,1-1.6V1.6c0-0.9-0.4-1.4-1-1.6h7.1c7.2,0,8.7,3.7,8.7,6.2c0,3.9-3.6,6.2-6,6.2
		c2.1,0.2,3,1.9,3.5,2.7c0,0,4,6.8,5.4,8.5c0.8,0.9,2.3,1.4,2.3,1.4L48.4,25z M38.2,1.6c-1.3,0-2.3,0.1-2.3,0.1v9.8
		c0,0,1,0.1,1.8,0.1c2.5,0,5.2-1.6,5.2-5.3C42.8,4.6,41.8,1.6,38.2,1.6z"/>
	<path class="st0" d="M147,25c-1.1,0-2-0.9-2-2c0-1.1,0.9-2,2-2c1.1,0,2,0.9,2,2C149,24.2,148.1,25,147,25 M147,21.4
		c-1,0-1.6,0.7-1.6,1.6c0,1,0.7,1.6,1.6,1.6c0.9,0,1.6-0.7,1.6-1.6C148.7,22.1,148,21.4,147,21.4 M147.6,23.2l0.4,0.9h-0.6l-0.4-0.8
		h-0.4v0.8h-0.5V22h1c0.4,0,0.7,0.2,0.7,0.7C148,23,147.8,23.2,147.6,23.2 M147.2,22.4h-0.5v0.6h0.5c0.2,0,0.3-0.1,0.3-0.2
		C147.5,22.4,147.4,22.4,147.2,22.4"/>
</g>
</svg>
