<?xml version="1.0" encoding="utf-8"?>
<!-- Generator: Adobe Illustrator 24.0.3, SVG Export Plug-In . SVG Version: 6.00 Build 0)  -->
<svg version="1.1" id="Layer_1" xmlns="http://www.w3.org/2000/svg" xmlns:xlink="http://www.w3.org/1999/xlink" x="0px" y="0px"
	 viewBox="0 0 116 24" style="enable-background:new 0 0 116 24;" xml:space="preserve">
<style type="text/css">
	.st0{fill:#FFFFFF;}
	.st1{fill-rule:evenodd;clip-rule:evenodd;fill:#FFFFFF;}
</style>
<rect x="46" y="2" class="st0" width="5" height="5"/>
<rect x="46" y="8" class="st0" width="5" height="16"/>
<g>
	<defs>
		<rect id="SVGID_1_" x="-170" y="-1569" width="1280" height="4757"/>
	</defs>
	<clipPath id="SVGID_2_">
		<use xlink:href="#SVGID_1_"  style="overflow:visible;"/>
	</clipPath>
</g>
<polygon class="st1" points="12,8 8.6,18.6 5.1,8 0,8 6,24 11.3,24 17,8 "/>
<g>
	<defs>
		<rect id="SVGID_3_" x="-170" y="-1569" width="1280" height="4757"/>
	</defs>
	<clipPath id="SVGID_4_">
		<use xlink:href="#SVGID_3_"  style="overflow:visible;"/>
	</clipPath>
</g>
<polygon class="st1" points="53,8 53,11.9 60.8,11.9 53,20.2 53,24 67,24 67,20.2 59.1,20.2 66.4,11.9 66.4,11.6 66.4,8 "/>
<g>
	<defs>
		<rect id="SVGID_5_" x="-170" y="-1569" width="1280" height="4757"/>
	</defs>
	<clipPath id="SVGID_6_">
		<use xlink:href="#SVGID_5_"  style="overflow:visible;"/>
	</clipPath>
</g>
<path class="st1" d="M39.7,10.5V8H35v16h4.7v-7.2c0.1-4.1,3.7-4.5,3.7-4.5H45V8h-1.7C41.8,8,40.3,9.7,39.7,10.5"/>
<g>
	<defs>
		<rect id="SVGID_7_" x="-170" y="-1569" width="1280" height="4757"/>
	</defs>
	<clipPath id="SVGID_8_">
		<use xlink:href="#SVGID_7_"  style="overflow:visible;"/>
	</clipPath>
</g>
<path class="st1" d="M20.9,13.6c0.6-1.8,1.9-3.1,3.5-3.1c1.6,0,2.9,1.3,3.5,3.1H20.9z M24.5,7c-4.7,0-8.5,3.8-8.5,8.5
	s3.8,8.5,8.5,8.5c3.6,0,7-2.2,8.3-5.3l-4.7,0c-0.7,1.1-1.9,1.8-3.7,1.7c-1.8-0.1-3.3-1.6-3.7-3.7h6.7h1.4h4c0.1-0.4,0.1-0.8,0.1-1.2
	C33,10.8,29.2,7,24.5,7z"/>
<g>
	<defs>
		<rect id="SVGID_9_" x="-170" y="-1569" width="1280" height="4757"/>
	</defs>
	<clipPath id="SVGID_10_">
		<use xlink:href="#SVGID_9_"  style="overflow:visible;"/>
	</clipPath>
</g>
<path class="st1" d="M76.1,20.4c-2.1,0-3.8-2.2-3.8-4.9c0-2.7,1.7-4.9,3.8-4.9c2.1,0,3.8,2.2,3.8,4.9C79.8,18.2,78.1,20.4,76.1,20.4
	 M76,7c-5,0-9,3.8-9,8.5s4,8.5,9,8.5s9-3.8,9-8.5S81,7,76,7"/>
<g>
	<defs>
		<rect id="SVGID_11_" x="-170" y="-1569" width="1280" height="4757"/>
	</defs>
	<clipPath id="SVGID_12_">
		<use xlink:href="#SVGID_11_"  style="overflow:visible;"/>
	</clipPath>
</g>
<path class="st1" d="M102,13.8c0-5-4.2-6.3-7.3-5.6c-1.8,0.4-3.2,1.6-3.8,2.3V8.4H86V24h4.9v-9.5c1.1-2.9,3.3-3,4.7-2.2
	c1.2,0.7,1.4,2.3,1.4,2.3V24h4.9L102,13.8L102,13.8z"/>
<g>
	<defs>
		<rect id="SVGID_13_" x="-170" y="-1569" width="1280" height="4757"/>
	</defs>
	<clipPath id="SVGID_14_">
		<use xlink:href="#SVGID_13_"  style="overflow:visible;"/>
	</clipPath>
</g>
<polygon class="st1" points="113.4,0 107,12.9 104.7,7.9 102,7.9 106,16 108.2,16 116,0 "/>
</svg>
