<svg xmlns="http://www.w3.org/2000/svg" id="beez-graphic" x="0px" y="0px" viewBox="0 0 112 112" style="enable-background:new 0 0 112 112;" xml:space="preserve">
  <defs>
    <style type="text/css">
      .st0{fill:#FFFFFF;}
      .st1{fill:#C1C3C6;}
      .st2{fill:#f9d843;}
      .st3{fill:#070707;}
    </style>
  </defs>
  <circle class="st0" cx="56" cy="56" r="56"></circle><path d="M14.6,67.6c-4.9,0-8.8-4-8.8-8.8s4-8.8,8.8-8.8c2.2,0,4.4,0.8,6,2.3c0.8,0.7,0.9,2,0.1,2.8c-0.7,0.8-2,0.9-2.8,0.1
  c-0.9-0.8-2.1-1.3-3.3-1.3c-2.7,0-4.8,2.2-4.8,4.8s2.2,4.8,4.8,4.8c1.2,0,2.4-0.5,3.3-1.3c0.8-0.8,2.1-0.7,2.8,0.1
  c0.8,0.8,0.7,2.1-0.1,2.8C19,66.8,16.8,67.6,14.6,67.6z"></path><path d="M40.4,43.6c2.4,0,4.3,1.9,4.3,4.3s-1.9,4.3-4.3,4.3c-2.4,0-4.3-1.9-4.3-4.3S38,43.6,40.4,43.6 M40.4,39.6
  c-4.6,0-8.3,3.7-8.3,8.3c0,4.6,3.7,8.3,8.3,8.3s8.3-3.7,8.3-8.3C48.7,43.3,45,39.6,40.4,39.6L40.4,39.6z"></path><path class="st2" d="M42.4,47.3c-1.6,0-2.9,1.3-2.9,2.9c0,0.8,0.3,1.5,0.8,2c0,0,0.1,0,0.1,0c2.2,0,4-1.7,4.3-3.8
  C44.1,47.8,43.3,47.3,42.4,47.3z"></path><path d="M63,11.4c-2.2-0.3-4.4-0.5-6.7-0.5c-22.4,0-41.1,16.2-44.9,37.6c1-0.3,2.1-0.5,3.2-0.5c0.3,0,0.6,0,0.9,0
  c1.5-7.1,4.8-13.6,9.5-18.9h24.1c0.6,0,1-0.4,1-1s-0.4-1-1-1H26.9c0.9-0.9,1.9-1.8,2.9-2.7h21.8c0.6,0,1-0.4,1-1s-0.4-1-1-1H32.4
  c1.4-1,2.8-1.9,4.3-2.7h19.7c0.6,0,1-0.4,1-1s-0.4-1-1-1H41.1c4.7-1.9,9.9-2.9,15.2-2.9c2,0,4.1,0.1,6.1,0.4
  c1.1,0.2,2.1-0.6,2.3-1.7C64.8,12.5,64.1,11.5,63,11.4z"></path><path class="st1" d="M44.5,76.2c0-1.1,0.9-2,2-2s2,0.9,2,2h3.6l-1.8-10.4c-2.3-1.2-5-1.9-7.8-1.9c-9.4,0-17,7.6-17,17
  c0,1.5,0.2,3,0.6,4.5c4.3,4.5,9.6,8,15.6,10.3L54,87.8C48.6,86.7,44.5,81.9,44.5,76.2z"></path><path class="st2" d="M70,47.3C70,47.3,70,47.3,70,47.3c-1.7,0-3,1.3-3,2.9c0,0.8,0.3,1.5,0.8,2c0,0,0.1,0,0.1,0
  c0.5,0,1.1-0.1,1.5-0.3C69.6,50.4,69.8,48.9,70,47.3z"></path><path d="M56.3,88c-6.5,0-11.8-5.3-11.8-11.8c0-1.1,0.9-2,2-2s2,0.9,2,2c0,4.3,3.5,7.8,7.8,7.8s7.8-3.5,7.8-7.8c0-1.1,0.9-2,2-2
  s2,0.9,2,2C68.1,82.7,62.8,88,56.3,88z"></path><g><path d="M42.7,95.9c-12.6-4.3-22-14.3-26-26.5l0,0c-0.7,0.1-1.4,0.2-2.1,0.2c-0.7,0-1.4-0.1-2.1-0.2c4.1,13.9,14.7,25.4,28.9,30.3
  	c0.2,0.1,0.4,0.1,0.7,0.1c0.8,0,1.6-0.5,1.9-1.3C44.3,97.4,43.7,96.3,42.7,95.9z"></path></g><path d="M114,70.4l0-0.1c0-0.9-0.7-1.7-1.6-1.9c-0.9-0.2-1.9,0.3-2.2,1.2c-1.5,3.7-5,6-8.9,6c-1.1,0-2.2-0.2-3.2-0.6
  c2.6-5.8,3.9-12,3.9-18.5c0-13.4-5.9-26-16.1-34.7c-3.7-3.3-8.4-5.1-13.4-5.1c0,0-0.1,0-0.1,0c-5.4,0-10.4,2.1-14.3,5.9
  c-3.8,3.8-6,8.9-6,14.3c0,1.1,0.1,2.2,0.3,3.3c0,0.1,4.5,25.1,4.5,25.1h-6.5l1.9,11h4.1l-1.2-7h6.6l-5.3-29.4
  c-0.1-0.4-0.1-0.8-0.2-1.2c0-5.4,4.6-9.8,10.1-9.8c3.5,0,6.6,1.8,8.4,4.7c-1.2,2.2-2.1,4.6-2.9,7c-1.1-0.6-2.4-0.9-3.8-0.9
  c-4.6,0-8.3,3.7-8.3,8.3s3.7,8.3,8.3,8.3c0.5,0,1-0.1,1.4-0.1c0.2,9.2,2.9,18,8,25.6c1.7,2.5,3.8,4.6,6.3,6.1c0,0,0,0,0,0
  c-4.1,3.6-8.8,6.3-13.9,8.1c-1,0.4-1.6,1.5-1.2,2.5c0.3,0.8,1.1,1.4,1.9,1.4c0.2,0,0.4,0,0.6-0.1c6.1-2.1,11.8-5.6,16.5-10
  c2,0.7,4.2,1.1,6.4,1.1c11,0,20-9,20-20C114,70.6,114,70.5,114,70.4z M69.5,52c-0.5,0.2-1,0.3-1.5,0.3c-2.4,0-4.3-1.9-4.3-4.3
  s1.9-4.3,4.3-4.3c1,0,1.9,0.4,2.7,0.9C70,47,69.6,49.5,69.5,52z M94,86.7c-5.4,0-10.4-2.7-13.3-7.2c-4.8-7.2-7.4-15.6-7.4-24.3
  c0-7.3,1.8-14.5,5.3-20.8c0.3-0.6,0.3-1.3,0-1.8c-2.4-4.8-7.1-7.8-12.4-7.8c-2.1,0-4.3,0.5-6.1,1.4c0.3-0.3,0.5-0.6,0.8-0.8
  c3.1-3,7.1-4.7,11.4-4.7c0,0,0.1,0,0.1,0c4,0,7.8,1.5,10.8,4.1c9.4,8,14.7,19.5,14.7,31.7c0,6.5-1.5,12.8-4.4,18.6
  c-0.5,0.9-0.1,2.1,0.8,2.6c2.1,1.2,4.5,1.9,6.8,1.9c2.7,0,5.2-0.8,7.3-2.1C106,82.9,100.4,86.7,94,86.7z"></path>
</svg>