<svg xmlns="http://www.w3.org/2000/svg" id="cx-graphic" x="0px" y="0px" viewBox="0 0 112 112" style="enable-background:new 0 0 112 112;" xml:space="preserve">
  <defs>
    <style type="text/css">
      .st0{fill:#FFFFFF;}
      .st1{fill:#C1C3C6;}
      .st2{fill:#f9d843;}
      .st3{fill:#070707;}
    </style>
  </defs>
  <circle class="st0" cx="56" cy="56" r="56"></circle><path d="M106.3,60.8v-9.6h-2.8c-0.4-4.1-1.3-8-2.7-11.7l3.5,1.5l-3.7-8.9l-2.7,1.1c-1.9-3.6-4.3-6.8-7.1-9.8h4L88,16.7l-2.2,2.2
c-3.2-2.5-6.7-4.7-10.4-6.4l3.9-1.6l-8.9-3.7l-1.3,3c-3.9-1.1-8-1.8-12.2-1.8l3.2-3.2h-9.6v3.5c-4.2,0.5-8.3,1.5-12.1,3l1.9-4.5
l-8.9,3.7l1.4,3.5c-3.7,2.1-7.1,4.6-10.1,7.5v-5.2l-6.8,6.8l2.8,2.8c-2.6,3.3-4.8,6.9-6.5,10.8l-2-4.9L6.7,41l3.7,1.5
c-1.2,4-1.8,8.2-1.9,12.5l-3.8-3.8v9.6h4c0.4,4.3,1.4,8.4,2.9,12.3l-4.9-2l3.7,8.9l3.7-1.5c2,3.7,4.5,7.1,7.3,10.2h-5.2l6.8,6.8
l2.7-2.7c3.2,2.6,6.7,4.9,10.5,6.6l-4.5,1.9l8.9,3.7l1.4-3.3c3.8,1.2,7.9,1.9,12.1,2.1l-3.3,3.3h9.6v-3.4c4.1-0.4,8.1-1.2,11.9-2.6
l-1.6,4l8.9-3.7l-1.2-2.9c3.6-1.9,6.9-4.2,9.9-6.9v4l6.8-6.8l-2.1-2.1c2.5-3.1,4.7-6.4,6.4-10.1l1.5,3.5l3.7-8.9l-2.6-1.1
c1.1-3.8,1.8-7.7,2-11.8L106.3,60.8z M56.1,95.6c-21.9,0-39.6-17.8-39.6-39.6s17.8-39.6,39.6-39.6S95.7,34.1,95.7,56
S77.9,95.6,56.1,95.6z"></path><path class="st2" d="M69.3,42.1v-2.8H42.8v2.8h-7.1v8.2c0,2.9,3.1,5.1,7.1,5.1h0c0,4.7,4.9,8.5,11.2,9.2c-0.5,3.5-3.5,6.3-7.2,6.3
h-0.1c-1.1,0-2,0.9-2,2s0.9,2,2,2h18.5c1.1,0,2-0.9,2-2s-0.9-2-2-2c-3.7,0-6.7-2.7-7.2-6.3c6.3-0.7,11.2-4.6,11.2-9.2c0,0,0,0,0,0
c4,0,7.1-2.2,7.1-5.1v-8.2H69.3z M39.7,50.3v-4.2h3.1v5.4h0C40.8,51.4,39.8,50.6,39.7,50.3z M69.3,51.4v-5.4h3.1l0,4.2
C72.3,50.6,71.3,51.4,69.3,51.4z"></path><path class="st1" d="M74.6,24C74.6,24,74.6,24,74.6,24C74.5,23.9,74.5,23.9,74.6,24c-5.5-3.2-11.8-5-18.5-5c-6.7,0-13,1.8-18.4,4.9
c0,0,0,0-0.1,0c0,0,0,0,0,0c-11,6.4-18.5,18.4-18.5,32c0,20.4,16.6,37,37,37s37-16.6,37-37C93.1,42.3,85.6,30.4,74.6,24z M74.5,85.8
l-3.8-6.5c-0.3-0.5-0.9-0.6-1.4-0.4c-0.5,0.3-0.6,0.9-0.4,1.4l3.8,6.6c-4.7,2.5-10,4-15.6,4.2V79.9c0-0.6-0.4-1-1-1s-1,0.4-1,1V91
c-5.6-0.2-11-1.7-15.6-4.2l3.8-6.6c0.3-0.5,0.1-1.1-0.4-1.4c-0.5-0.3-1.1-0.1-1.4,0.4l-3.8,6.5c-4.6-2.9-8.6-6.8-11.4-11.5l15.1-8.7
c0.5-0.3,0.6-0.9,0.4-1.4c-0.3-0.5-0.9-0.6-1.4-0.4l-15.2,8.7c-2.5-4.7-4-10-4.2-15.6h11.1c0.6,0,1-0.4,1-1s-0.4-1-1-1H21.1
c0.2-5.6,1.7-10.9,4.2-15.6l3.1,1.8c0.2,0.1,0.3,0.1,0.5,0.1c0.3,0,0.7-0.2,0.9-0.5c0.3-0.5,0.1-1.1-0.4-1.4l-3.1-1.8
c2.9-4.6,6.8-8.5,11.4-11.4l5.5,9.6c0.2,0.3,0.5,0.5,0.9,0.5c0.2,0,0.3,0,0.5-0.1c0.5-0.3,0.6-0.9,0.4-1.4l-5.5-9.6
c4.7-2.5,10-4,15.6-4.2v11.1c0,0.6,0.4,1,1,1s1-0.4,1-1V21c5.6,0.2,10.9,1.6,15.6,4.2l-5.5,9.6c-0.3,0.5-0.1,1.1,0.4,1.4
c0.2,0.1,0.3,0.1,0.5,0.1c0.3,0,0.7-0.2,0.9-0.5l5.5-9.6c4.6,2.9,8.6,6.8,11.4,11.4l-3.1,1.8c-0.5,0.3-0.6,0.9-0.4,1.4
c0.2,0.3,0.5,0.5,0.9,0.5c0.2,0,0.3,0,0.5-0.1l3.1-1.8c2.5,4.7,4,10,4.2,15.6H80c-0.6,0-1,0.4-1,1s0.4,1,1,1h11.1
c-0.2,5.6-1.6,11-4.2,15.6l-15.1-8.7c-0.5-0.3-1.1-0.1-1.4,0.4c-0.3,0.5-0.1,1.1,0.4,1.4l15.1,8.7C83,79,79.1,82.9,74.5,85.8z"></path>
</svg>