<svg xmlns="http://www.w3.org/2000/svg" id="doge-graphic" x="0px" y="0px" viewBox="0 0 112 112" style="enable-background:new 0 0 112 112;" xml:space="preserve">
  <defs>
    <style type="text/css">
      .st0{fill:#FFFFFF;}
      .st1{fill:#C1C3C6;}
      .st2{fill:#f9d843;}
      .st3{fill:#070707;}
    </style>
  </defs>
  <circle class="st0" cx="56" cy="56" r="56"></circle><path d="M99.8,28.3c-7.2-7.9-17.7-12.2-31.1-12.7c-5.8-2.4-12.5-2-17-1.7c-8.7,0.5-63,5.9-65.3,6.1l-1.8,0.2V22
c0,12.6,16.3,24.9,31.3,29.2c14.4,4,28.1,2.5,34.1,1.4l-6.9,30.6h-6.3c-2.2,0-4,1.8-4,4s1.8,4,4,4h4.5l-3.9,17.1L27.8,90l0,0
c-1.9-4.1-5.1-6.8-8.8-6.8c-4.8,0-8.9,4.6-10.1,10.8c0,0.1-0.2,1.4-0.2,1.4c-0.1,0.8-0.2,1.7-0.2,2.6c0,4.5,1.4,8.5,3.6,11.2
l0.4-4.8c1.1,1.3,2.4,2.2,3.9,2.7c0.6,1.8,1.5,3.5,2.6,4.8v-4.4c1.5,0,2.9-0.5,4.2-1.3c0.6,2,1.5,3.7,2.7,5.1v-7.5
c0.1-0.2,0.3-0.3,0.4-0.5c3.5,2.2,7.2,4,11.1,5.4c-0.1,1,0.6,1.9,1.5,2.1c0.1,0,0.3,0,0.4,0c0.9,0,1.7-0.6,1.9-1.6l4.1-18.3h40
c-0.2,0.6-0.4,1.3-0.6,1.9c-0.4,1.2-0.6,2.4-0.6,3.7c0,3.3,1.4,6.3,3.6,8.3v6.3c1-1.3,1.9-2.9,2.5-4.7c1.2,0.5,2.5,0.8,3.8,0.8
c0.1,0,0.1,0,0.2,0c0.1,0,0.3,0,0.4,0v4.4c1.1-1.3,2-3,2.6-4.8c1.6-0.6,3.1-1.7,4.3-3.2v5.2c2.2-2.7,3.6-6.7,3.6-11.2
c0-0.9-0.1-1.7-0.2-2.6c0,0,0,0,0,0c0,0,0-0.1,0-0.1c0-0.3-0.1-0.6-0.2-1c0-0.1-0.1-0.3-0.1-0.4c-0.1-0.3-0.1-0.6-0.2-0.9
c0-0.2-0.1-0.3-0.1-0.5c-0.1-0.2-0.1-0.5-0.2-0.7c0,0,0,0,0,0c-1.7-5-5.3-8.5-9.5-8.5c-0.2,0-0.4,0-0.6,0c-0.2,0-0.3-0.1-0.5-0.1
h-2.3c-2.8-13.1-6.8-32-9.6-44.5c0.8-1.1,2.5-2.8,3.7-2.2c0.8,0.3,1.4,3.4,1.9,5.5c0.8,3.7,1.9,8.4,4.7,12
c4.7,6.1,12.7,6.6,15.4,6.6c0.5,0,0.8,0,0.9,0l1.7-0.1l0.1-1.7C110.3,58,111.3,40.9,99.8,28.3z M95.2,51.6c-2.3-3-3.2-7-4-10.5
c-0.9-3.9-1.6-7.2-4.2-8.3c-3-1.3-5.8,0.5-7.7,2.5c0,0,0,0,0,0c-0.5-2.1-4.4-7.6-4.4-7.6c0.1,0.3,0.2,0.7,0.3,1.1
c0.1,0.3,0.2,0.6,0.3,0.9c2.3,9.2,8,36.1,11.7,53.6h-40l8.1-35.9l-3.2,0.8c-0.2,0-13.6,3.3-29,0.7c6.8-0.8,12.2-3.5,14-7H4.1
l11.7-20.6c15.3-1.5,31.8-3,36.2-3.3c5.6-0.3,11.2-0.3,15.6,1.6c1.7,0.7,3.3,1.8,4.5,3.2c0,0-0.8-2.2-1.2-2.9
c11.2,0.8,19.9,4.6,26,11.2c8.2,9,9.3,21,9.4,25.6C103.5,56.4,98.3,55.5,95.2,51.6z"></path><path class="st1" d="M66.8,47c-7.3-16.3-29.4-23.2-54.9-19L4.1,41.8h33.2c-1.8,3.4-7.2,6.1-14,7c15.4,2.7,28.8-0.6,29-0.7l3.2-0.8
l-8.1,35.9h13.3C68.9,70.9,71.6,57.9,66.8,47z"></path><path class="st1" d="M45.4,91.2l-2.3,10.2c4.1-3.2,7.8-6.6,11.1-10.2H45.4z"></path><path d="M56.8,21.9c-5.3,0-9.5,3.2-9.5,7.2c0,4.1,4.2,7.2,9.5,7.2s9.5-3.2,9.5-7.2C66.3,25.1,62.1,21.9,56.8,21.9z M58,32.3
c0.9-1,1.5-2.4,1.5-3.9c0-0.8-0.2-1.5-0.4-2.2c1.9,0.6,3.1,1.8,3.1,2.9C62.3,30.5,60.6,31.9,58,32.3z"></path><circle class="st2" cx="53.3" cy="28.6" r="2.5"></circle><circle cx="11.2" cy="38.1" r="1.5"></circle><circle cx="17.2" cy="38.1" r="1.5"></circle><circle cx="14.2" cy="33.1" r="1.5"></circle><path class="st3" d="M56,41.8c-1.1-2.1-5-3.7-9.5-3.7s-8.4,1.6-9.5,3.7H56z"></path><circle class="st0" cx="-4" cy="28.9" r="3.5"></circle><path class="st0" d="M-12.7,25.4c-0.1,0-0.2,0-0.3,0c0.3,1.4,0.9,2.7,1.6,4c0.6-0.4,0.9-1.1,0.9-1.8C-10.5,26.4-11.5,25.4-12.7,25.4
z"></path>
</svg>