<svg xmlns="http://www.w3.org/2000/svg" id="fantasy-graphic" x="0px" y="0px" viewBox="0 0 112 112" style="enable-background:new 0 0 112 112;" xml:space="preserve">
  <defs>
    <style type="text/css">
      .st0{fill:#FFFFFF;}
      .st1{fill:#C1C3C6;}
      .st2{fill:#f9d843;}
      .st3{fill:#070707;}
    </style>
  </defs>
  <path class="st0" d="M103.6,26.6l1-1c3.1-3.1,3.1-8.2,0-11.3c-3.1-3.1-8.2-3.1-11.3,0C83.4,5.4,70.3,0,56,0C25.1,0,0,25.1,0,56
c0,14.4,5.4,27.5,14.4,37.4c-2,3.1-1.7,7.3,1.1,10c1.6,1.6,3.6,2.3,5.7,2.3c2,0,3.9-0.7,5.5-2.2c8.6,5.3,18.6,8.4,29.5,8.4
c30.9,0,56-25.1,56-56C112,45.2,108.9,35.1,103.6,26.6z"></path><path d="M77.5,87.5c-0.1,0-0.3,0-0.4,0c-0.8-0.2-1.3-1-1.1-1.8l0.1-0.2c0.2-0.8,1-1.3,1.8-1.1c0.8,0.2,1.3,1,1.1,1.8L79,86.4
C78.8,87,78.2,87.5,77.5,87.5z"></path><path d="M78.1,81.2c-0.8,0-1.4-0.6-1.5-1.4l0-0.2C76.5,78.8,77.1,78,78,78c0.8-0.1,1.5,0.5,1.6,1.4l0,0.3
C79.6,80.4,79,81.2,78.1,81.2C78.2,81.2,78.1,81.2,78.1,81.2z"></path><path d="M76.7,75.1c-0.6,0-1.2-0.4-1.4-0.9l-0.1-0.2c-0.3-0.8,0-1.6,0.8-2c0.8-0.3,1.6,0,2,0.8l0.1,0.2c0.3,0.8-0.1,1.6-0.8,2
C77.1,75,76.9,75.1,76.7,75.1z"></path><path d="M73.6,69.6c-0.5,0-1-0.2-1.3-0.7l-0.1-0.2c-0.4-0.7-0.2-1.6,0.5-2.1c0.7-0.4,1.6-0.2,2.1,0.5l0.1,0.2
c0.4,0.7,0.2,1.6-0.5,2.1C74.1,69.5,73.8,69.6,73.6,69.6z"></path><path d="M41.6,64.3c-0.2,0-0.5-0.1-0.7-0.2c-0.7-0.4-1-1.3-0.6-2l0.1-0.2c0.4-0.7,1.3-1,2-0.6c0.7,0.4,1,1.3,0.6,2l-0.1,0.2
C42.6,64,42.1,64.3,41.6,64.3z     "></path><path d="M70.3,64.1c-0.5,0-1-0.3-1.3-0.8l-0.1-0.2c-0.4-0.7-0.1-1.6,0.6-2c0.7-0.4,1.6-0.1,2,0.6l0.1,0.2c0.4,0.7,0.2,1.6-0.6,2
C70.8,64.1,70.6,64.1,70.3,64.1z"></path><path d="M44.5,58.7c-0.2,0-0.4,0-0.6-0.1c-0.7-0.4-1.1-1.3-0.7-2l0.1-0.2c0.4-0.7,1.3-1.1,2-0.7c0.7,0.4,1.1,1.3,0.7,2l-0.1,0.2
C45.6,58.3,45.1,58.7,44.5,58.7z"></path><path d="M47,52.8c-0.2,0-0.4,0-0.5-0.1c-0.8-0.3-1.2-1.2-0.9-1.9l0.1-0.2c0.3-0.8,1.1-1.2,1.9-0.9c0.8,0.3,1.2,1.1,0.9,1.9l-0.1,0.2
C48.2,52.5,47.6,52.8,47,52.8z"></path><path class="st1" d="M46.1,84.1L38,92.2c5.2,3.2,11.4,5.1,18,5.1c2.1,0,4.2-0.2,6.2-0.6C55.7,94.1,50.1,89.7,46.1,84.1z"></path><path d="M88.2,42l-2.9,2.9c3.2,5.2,5.1,11.4,5.1,18c0,11.4-5.6,21.5-14.1,27.8c-0.1-0.1-0.2-0.3-0.4-0.4c-0.7-0.5-1.6-0.3-2.1,0.4
l-0.1,0.2c-0.3,0.5-0.3,1.1-0.1,1.6c-5.1,3.1-11.1,4.8-17.6,4.8c-6.6,0-12.7-1.9-18-5.1l-2.9,2.9c6,3.9,13.2,6.2,20.9,6.2
c21.2,0,38.4-17.2,38.4-38.4C94.4,55.2,92.1,48,88.2,42z"></path><path d="M88.4,41.8c7.5-2,13.8-4.6,18-7.6H96L88.4,41.8z"></path><path d="M37.5,69.5c0.1,0.1,0.2,0.1,0.4,0.2l2-2c-0.1-0.4-0.3-0.7-0.7-0.9c-0.7-0.4-1.6-0.2-2.1,0.5l-0.1,0.2
C36.6,68.1,36.8,69,37.5,69.5z"></path><path class="st1" d="M43.9,45.2C38.2,44.7,32.9,44,28,42.9c-4,5.6-6.4,12.5-6.4,19.9c0,6.6,1.9,12.7,5.1,18l11.2-11.2
c-0.1,0-0.3-0.1-0.4-0.2c-0.7-0.4-0.9-1.4-0.5-2.1l0.1-0.2c0.4-0.7,1.4-0.9,2.1-0.5c0.1,0.1,0.2,0.1,0.2,0.2
c-0.2-1.3-0.3-2.7-0.3-4.1C39.2,56.4,40.9,50.4,43.9,45.2z"></path><path class="st2" d="M93.6,29.3c-1,0-2-0.4-2.8-1.2c-1.6-1.6-1.6-4.1,0-5.7l5.5-5.5c1.6-1.6,4.1-1.6,5.7,0c1.6,1.6,1.6,4.1,0,5.7
l-5.5,5.5C95.6,28.9,94.6,29.3,93.6,29.3z"></path><path d="M87.5,31.4c-1.6-1.6-4.1-1.6-5.7,0L18.3,95c-1.6,1.6-1.6,4.1,0,5.7c0.8,0.8,1.8,1.2,2.8,1.2s2-0.4,2.8-1.2l42.5-42.5
c0.3,0.2,0.6,0.4,1,0.4c0.2,0,0.4,0,0.6-0.1c0.7-0.4,1.1-1.3,0.7-2l-0.1-0.2c0-0.1-0.1-0.1-0.1-0.2l18.9-18.9
C89,35.5,89,33,87.5,31.4z"></path><path d="M73.5,14.9l-2.9-1.5L67.3,15l0.6-3.6l-2.6-2.6L69,8.3L69.6,7C62.8-1.1,49-3.8,33.1-0.9c5.7,0,10.5,1.7,13,5l2.5-0.4l1.6-3.3
l1.6,3.3l3.7,0.5l-2.6,2.6l0.6,3.6l-3.3-1.7l-2,1.1c0.4,7.9-7.3,17.9-19.3,24.3h-0.3H5.4C9.7,37.3,16.1,40,23.8,42
c-3.9,6-6.2,13.2-6.2,20.9c0,7.7,2.3,14.9,6.2,20.9l2.9-2.9c-3.2-5.2-5.1-11.4-5.1-18c0-7.4,2.4-14.3,6.4-19.9
c5.9,1.2,12.4,2.1,19.3,2.5c0.1,0.6,0.5,1.2,1.2,1.3c0.1,0,0.2,0,0.3,0c0.7,0,1.3-0.5,1.5-1.2l0-0.1c1.8,0.1,3.7,0.1,5.6,0.1
c2.1,0,4.2-0.1,6.2-0.1l14.8-14.8C76.9,30.7,74.1,27.5,73.5,14.9z M48.2,32.5l0.6,3.6l-3.3-1.7l-3.3,1.7l0.6-3.6l-2.6-2.6l3.7-0.5
l1.6-3.3l1.6,3.3l3.7,0.5L48.2,32.5z M65.1,27.5l-3.3-1.7l-3.3,1.7l0.6-3.6l-2.6-2.6l3.7-0.5l1.6-3.3l1.6,3.3l3.7,0.5l-2.6,2.6
L65.1,27.5z"></path>
</svg>