<svg xmlns="http://www.w3.org/2000/svg" id="meaningful-content-graphic" x="0px" y="0px" viewBox="0 0 112 112" style="enable-background:new 0 0 112 112;" xml:space="preserve">
  <defs>
    <style type="text/css">
      .st0{fill:#FFFFFF;}
      .st1{fill:#C1C3C6;}
      .st2{fill:#f9d843;}
      .st3{fill:#070707;}
    </style>
  </defs>
  <circle class="st0" cx="56" cy="56" r="56"/><path class="st1" d="M21,12c-0.5,0-1,0.5-1,1v66.6L60.3,12H21z"/><rect x="29" y="21" class="st2" width="53" height="40"/><path d="M81.6,84.2H64.9c-2.2,0-4-1.8-4-4s1.8-4,4-4h16.8c2.2,0,4,1.8,4,4S83.8,84.2,81.6,84.2z"/><circle cx="27.5" cy="84.5" r="2.5"/><path class="st0" d="M71.7,35.9c0-4.8-3.9-8.6-8.6-8.6c-4.5,0-8.1,3.4-8.6,7.7c-0.5-4.3-4.1-7.7-8.6-7.7c-4.8,0-8.6,3.9-8.6,8.6 c0,2.4,1,4.5,2.5,6.1l14.6,15.3v0.1l0-0.1l0,0.1v-0.1L69.2,42C70.7,40.4,71.7,38.3,71.7,35.9z"/><path d="M86,65H25V17h61V65z M29,61h53V21H29V61z"/><polygon class="st0" points="82,21 29,21 29,23 80,23 80,61 82,61 "/><path d="M102.4,18.6L92.3,8H21c-2.8,0-5,2.2-5,5v77.8l12.7,10.6c0.4,0.3,0.8,0.5,1.3,0.5c0.6,0,1.1-0.2,1.5-0.7 c0.7-0.8,0.6-2.1-0.3-2.8L20,88.9V13c0-0.5,0.5-1,1-1h69.5v85.5l-1,2.6l-1.1-2.8c-0.1-0.4-0.5-0.6-0.9-0.6s-0.8,0.3-0.9,0.6 l-1.1,2.8l-1.1-2.8c-0.1-0.4-0.5-0.6-0.9-0.6s-0.8,0.3-0.9,0.6l-1.1,2.8l-1.1-2.8c-0.1-0.4-0.5-0.6-0.9-0.6s-0.8,0.3-0.9,0.6 l-1.1,2.8l-1.1-2.8c-0.1-0.4-0.5-0.6-0.9-0.6s-0.8,0.3-0.9,0.6l-1.1,2.8l-1.1-2.8c-0.1-0.4-0.5-0.6-0.9-0.6s-0.8,0.3-0.9,0.6 l-1.1,2.8l-1.1-2.8c-0.1-0.4-0.5-0.6-0.9-0.6s-0.8,0.3-0.9,0.6l-1.1,2.8l-1.1-2.8c-0.1-0.4-0.5-0.6-0.9-0.6s-0.8,0.3-0.9,0.6 l-1.1,2.8l-1.1-2.8c-0.1-0.4-0.5-0.6-0.9-0.6h-7.7c-0.3-0.6-1-1-1.7-1h-5.9c0,0,0.1,0,0.1,0c2.2-0.9,4-2.3,4.9-4l-10.7,4.1l0,0 c-0.8,0.3-1.3,1-1.3,1.9c0,1.1,0.9,2,2,2h11c0.7,0,1.4-0.4,1.7-1l7,0l1.8,4.6c0.1,0.4,0.5,0.6,0.9,0.6s0.8-0.3,0.9-0.6l1.1-2.8 l1.1,2.8c0.1,0.4,0.5,0.6,0.9,0.6s0.8-0.3,0.9-0.6l1.1-2.8l1.1,2.8c0.1,0.4,0.5,0.6,0.9,0.6s0.8-0.3,0.9-0.6l1.1-2.8l1.1,2.8 c0.1,0.4,0.5,0.6,0.9,0.6s0.8-0.3,0.9-0.6l1.1-2.8l1.1,2.8c0.1,0.4,0.5,0.6,0.9,0.6s0.8-0.3,0.9-0.6l1.1-2.8l1.1,2.8 c0.1,0.4,0.5,0.6,0.9,0.6s0.8-0.3,0.9-0.6l1.1-2.8l1.1,2.8c0.1,0.4,0.5,0.6,0.9,0.6s0.8-0.3,0.9-0.6l1.1-2.8l1.1,2.8 c0.1,0.4,0.5,0.6,0.9,0.6s0.8-0.3,0.9-0.6l2-5.2c0-0.1,0.1-0.2,0.1-0.4c0,0,0,0,0,0V14l7.1,7.5c1.5,1.5,2.4,3.6,2.4,5.5v44.5 c0,1.1,0.9,2,2,2s2-0.9,2-2V27C106,23.9,104.7,20.9,102.4,18.6z"/>
</svg>