<svg xmlns="http://www.w3.org/2000/svg" id="prime-graphic" x="0px" y="0px" viewBox="0 0 112 112" style="enable-background:new 0 0 112 112;" xml:space="preserve">
  <defs>
    <style type="text/css">
      .st0{fill:#FFFFFF;}
      .st1{fill:#C1C3C6;}
      .st2{fill:#f9d843;}
      .st3{fill:#070707;}
    </style>
  </defs>
  <path class="st0" d="M112,56.467c0,30.928-25.072,56-56,56s-56-25.072-56-56s25.072-56,56-56S112,25.539,112,56.467"></path><path class="st3" d="M91.666,57.755V17.722c0-2.209-1.791-4-4-4s-4,1.791-4,4v16.123c-4.038-7.243-10.836-12.733-18.973-15.052l3.81,25
L56.011,54.406L43.519,43.794l3.809-25c-8.131,2.316-14.925,7.801-18.964,15.036V17.722c0-2.209-1.791-4-4-4s-4,1.791-4,4v40.034
h-4.978l6.999,28.904v0.004l6.781,3.866V80.46c0-1.104,0.896-2,2-2s2,0.896,2,2v12.352l10.693,6.097l-5.547-23.244V64.933
l16.686,3.896v6.999c0,0.553,0.447,1,1,1s1-0.447,1-1V68.83l16.709-3.898v10.757L68.16,98.925L79,92.733V80.46c0-1.104,0.896-2,2-2
s2,0.896,2,2v9.989l6.627-3.785v-0.001l7-28.908H91.666z"></path><polygon class="st2" points="50.973,56.006 31.122,53.937 31.122,57.785 50.973,62.422"></polygon><polygon class="st2" points="61.039,56.006 80.891,53.937 80.891,57.785 61.039,62.422"></polygon><path class="st1" d="M56.998,68.83v6.997c0,0.552-0.446,0.998-0.998,1V98.92l12.16,0.005l5.547-23.236V64.932L56.998,68.83z"></path><polygon class="st1" points="56.011,54.406 68.49,43.794 64.134,15.197 56.011,15.197"></polygon>
</svg>