<svg xmlns="http://www.w3.org/2000/svg" id="sax-graphic" x="0px" y="0px" viewBox="0 0 112 112" style="enable-background:new 0 0 112 112;" xml:space="preserve">
  <defs>
    <style type="text/css">
      .st0{fill:#FFFFFF;}
      .st1{fill:#C1C3C6;}
      .st2{fill:#f9d843;}
      .st3{fill:#070707;}
    </style>
  </defs>
  <circle class="st0" cx="56" cy="56" r="56"></circle><path class="st2" d="M88.7,33.3L73.3,61c-2.2,4-5.2,6.8-9.6,6.8c-1.9,0-3.7-0.5-5.2-1.4c7.2-2.7,11.7-6.7,11.7-11.2
c0-6.6-9.8-12.1-23.4-14.1L26.1,61.8c-8.6-1.8-14.6-6-14.6-10.8c0-3.6,3.3-6.8,8.5-9c-11,2.5-18.4,7.5-18.4,13.2
c0,5.4,6.8,10.2,16.8,12.8c1,5.6,3.3,10.7,6.5,15.2c-0.1,3.4,1.1,6.8,3.7,9.4c3.3,3.3,7.9,4.4,12.1,3.3c4.6,2,9.7,3.1,15.1,3.1
c5,0,9.8-1,14.2-2.7c2.6-0.1,5.1-1.2,7.1-3.1c0.5-0.5,0.9-1,1.2-1.5c9.4-6.9,15.5-18.1,15.5-30.7V33.3H88.7z"></path><path d="M88.2,74.1c-5.3,0-9.5-4.3-9.5-9.5s4.3-9.5,9.5-9.5c5.2,0,9.5,4.3,9.5,9.5S93.4,74.1,88.2,74.1z M88.2,59.1
c-3,0-5.5,2.5-5.5,5.5c0,3,2.5,5.5,5.5,5.5s5.5-2.5,5.5-5.5C93.7,61.6,91.2,59.1,88.2,59.1z"></path><path class="st1" d="M88.2,59.1c-3,0-5.5,2.5-5.5,5.5c0,3,2.5,5.5,5.5,5.5s5.5-2.5,5.5-5.5C93.7,61.6,91.2,59.1,88.2,59.1z"></path><path d="M93.8,52.6c-4.1,0-7.4-3.3-7.4-7.3c0-4,3.3-7.3,7.4-7.3s7.4,3.3,7.4,7.3C101.2,49.3,97.9,52.6,93.8,52.6z M93.8,42
c-1.9,0-3.4,1.5-3.4,3.3c0,1.8,1.5,3.3,3.4,3.3s3.4-1.5,3.4-3.3C97.2,43.5,95.7,42,93.8,42z"></path><path class="st1" d="M97.2,45.3c0-1.8-1.5-3.3-3.4-3.3s-3.4,1.5-3.4,3.3c0,1.8,1.5,3.3,3.4,3.3S97.2,47.1,97.2,45.3z"></path><path d="M37.5,84.7c-0.3,0-0.5-0.1-0.7-0.3c-0.4-0.4-0.4-1,0-1.4l12.5-12.5c0.4-0.4,1-0.4,1.4,0s0.4,1,0,1.4L38.2,84.4
C38,84.6,37.8,84.7,37.5,84.7z"></path><path d="M37.6,98.3c-3.8,0-7.6-1.4-10.5-4.3c-5.8-5.8-5.7-15.3,0.2-21.3c4.3-4.3,10.6-5.6,16.2-3.5c1,0.4,1.5,1.6,1.1,2.6
c-0.4,1-1.6,1.5-2.6,1.1c-4.1-1.6-8.8-0.6-11.9,2.6C25.9,80,25.8,86.9,30,91.2c4.2,4.2,11.2,4.2,15.6-0.2c3.2-3.2,4.2-7.8,2.6-11.9
c-0.4-1,0.1-2.2,1.1-2.6c1-0.4,2.2,0.1,2.6,1.1c2.1,5.6,0.8,11.9-3.5,16.2C45.5,96.8,41.5,98.3,37.6,98.3z"></path><path d="M69.1,86.9c-0.3,0-0.5-0.1-0.7-0.3c-0.4-0.4-0.4-1,0-1.4L78.6,75c0.4-0.4,1-0.4,1.4,0s0.4,1,0,1.4L69.9,86.6
C69.7,86.8,69.4,86.9,69.1,86.9z"></path><path d="M69.5,98.3c-3.3,0-6.5-1.2-9-3.7c-5-5-5-13.1,0-18c3.6-3.6,9-4.7,13.7-2.8c1,0.4,1.5,1.6,1.1,2.6c-0.4,1-1.6,1.5-2.6,1.1
c-3.2-1.3-6.9-0.5-9.4,1.9c-3.4,3.4-3.4,9,0,12.4c3.4,3.4,9,3.4,12.4,0c2.5-2.5,3.2-6.2,1.9-9.4c-0.4-1,0.1-2.2,1.1-2.6
c1-0.4,2.2,0.1,2.6,1.1c1.9,4.7,0.8,10.1-2.8,13.7C76,97.1,72.7,98.3,69.5,98.3z"></path><path d="M118.2,33.3c0-9.7-7.9-17.6-17.6-17.6c-0.8,0-1.5,0-2.3,0.1l-9.7,17.4h0H118.2z"></path><path d="M35.8,41.6c-0.6,0-1-0.4-1-1v-9.2c0-0.6,0.4-1,1-1s1,0.4,1,1v9.2C36.8,41.2,36.4,41.6,35.8,41.6z"></path><path d="M25.4,44c0.3,0,0.5-0.1,0.7-0.3c0.4-0.4,0.4-1,0-1.4L18.8,35c-0.4-0.4-1-0.4-1.4,0s-0.4,1,0,1.4l7.3,7.3
C24.9,43.9,25.1,44,25.4,44z"></path><path d="M49.2,41.5l5.1-5.1c0.4-0.4,0.4-1,0-1.4s-1-0.4-1.4,0L26.1,61.8c3,0.6,6.3,1,9.8,1c13.4,0,24.3-5.3,24.3-11.8
C60.2,47.4,55.3,43,49.2,41.5z"></path></svg>