<svg xmlns="http://www.w3.org/2000/svg" id="sox-graphic" x="0px" y="0px" viewBox="0 0 112 112" style="enable-background:new 0 0 112 112;" xml:space="preserve">
  <defs>
    <style type="text/css">
      .st0{fill:#FFFFFF;}
      .st1{fill:#C1C3C6;}
      .st2{fill:#f9d843;}
      .st3{fill:#070707;}
    </style>
  </defs>
  <circle class="st0" cx="56" cy="56.2" r="56"></circle><path d="M63.9,51.5v17.4H46.7V51.5h-6v17.9c0,3,2.5,5.5,5.5,5.5h18.2c3,0,5.5-2.5,5.5-5.5V51.5H63.9z"></path><circle class="st2" cx="56" cy="94.6" r="5.7"></circle><path d="M10.9,74.9v-6l21.3,0v-2.7l-16.7,0c-2.5,0-4.6-2.1-4.6-4.6v-5.5c0-2.5,2.1-4.6,4.6-4.6l22.7,0v6l-21.3,0v2.7l16.7,0
c2.5,0,4.6,2.1,4.6,4.6v5.5c0,2.5-2.1,4.6-4.6,4.6L10.9,74.9z"></path><path d="M71.9,76.9h-1L59.8,88c1.2,0.7,2.2,1.7,2.8,2.8l13.9-13.9H71.9z"></path><path d="M35.2,76.7l14.1,14.1c0.7-1.2,1.7-2.2,2.8-2.8L38.7,74.5C37.8,75.6,36.6,76.3,35.2,76.7z"></path><path d="M38.2,49.5l1.9,0l8.7-8.7L56,48l7.2-7.2l8.7,8.7h5.7L56,27.9L34.4,49.5L38.2,49.5z M56,33.6l4.4,4.4L56,42.3l-4.4-4.4
L56,33.6z"></path><path d="M101.1,57.5v-6h-7.6c-0.9,0-1.8,0.4-2.3,1.1l-4.7,5.9l-4.7-5.9c-0.6-0.7-1.4-1.1-2.3-1.1h-7.6v6H78l4.6,5.7L78,68.9h-6.1v6
h7.6c0.9,0,1.8-0.4,2.3-1.1l4.7-5.9l4.7,5.9c0.6,0.7,1.4,1.1,2.3,1.1h7.6v-6H95l-4.6-5.7l4.6-5.7H101.1z"></path><path class="st1" d="M56,14.8c-20.3,0-37,15.1-39.6,34.7l18,0L56,27.9l21.6,21.6h1.9c1.5,0,2.9,0.7,3.9,1.9l2.7,3.4h0.9l2.7-3.4
c1-1.2,2.4-1.9,3.9-1.9h2C93,29.9,76.3,14.8,56,14.8z"></path>
</svg>