<?xml version="1.0" encoding="utf-8"?>
<!-- Generator: Adobe Illustrator 25.2.1, SVG Export Plug-In . SVG Version: 6.00 Build 0)  -->
<svg version="1.1" id="sox-graphic" xmlns="http://www.w3.org/2000/svg" xmlns:xlink="http://www.w3.org/1999/xlink" x="0px"
	 y="0px" viewBox="0 0 112 112" style="enable-background:new 0 0 112 112;" xml:space="preserve">
<style type="text/css">
	.st0{fill:#FFFFFF;}
	.st1{fill:#F9D843;}
	.st2{fill:#C1C3C6;}
</style>
<circle class="st0" cx="56" cy="56.2" r="56"/>
<path d="M64.4,51.5H46.2c-3,0-5.5,2.5-5.5,5.5v4.5v3.4v4.5c0,3,2.5,5.5,5.5,5.5h18.2c3,0,5.5-2.5,5.5-5.5v-4.5v-3.4V57
	C69.9,54,67.4,51.5,64.4,51.5z M63.9,64.9v4H46.7v-4v-3.4v-4h17.2v4V64.9z"/>
<circle class="st1" cx="56" cy="94.6" r="5.7"/>
<path d="M10.9,74.9v-6h21.3v-2.7H15.5c-2.5,0-4.6-2.1-4.6-4.6v-5.5c0-2.5,2.1-4.6,4.6-4.6h22.7v6H16.9v2.7h16.7
	c2.5,0,4.6,2.1,4.6,4.6v5.5c0,2.5-2.1,4.6-4.6,4.6L10.9,74.9z"/>
<path d="M71.9,76.9h-1L59.8,88c1.2,0.7,2.2,1.7,2.8,2.8l13.9-13.9H71.9z"/>
<path d="M35.2,76.7l14.1,14.1c0.7-1.2,1.7-2.2,2.8-2.8L38.7,74.5C37.8,75.6,36.6,76.3,35.2,76.7z"/>
<path d="M38.2,49.5h1.9l8.7-8.7L56,48l7.2-7.2l8.7,8.7h5.7L56,27.9L34.4,49.5H38.2z M56,33.6l4.4,4.4L56,42.3l-4.4-4.4L56,33.6z"/>
<path d="M101.1,57.5v-6h-7.6c-0.9,0-1.8,0.4-2.3,1.1l-4.7,5.9l-4.7-5.9c-0.6-0.7-1.4-1.1-2.3-1.1h-7.6v6H78l4.6,5.7L78,68.9h-6.1v6
	h7.6c0.9,0,1.8-0.4,2.3-1.1l4.7-5.9l4.7,5.9c0.6,0.7,1.4,1.1,2.3,1.1h7.6v-6H95l-4.6-5.7l4.6-5.7H101.1z"/>
<path class="st2" d="M56,14.8c-20.3,0-37,15.1-39.6,34.7h18L56,27.9l21.6,21.6h1.9c1.5,0,2.9,0.7,3.9,1.9l2.7,3.4H87l2.7-3.4
	c1-1.2,2.4-1.9,3.9-1.9h2C93,29.9,76.3,14.8,56,14.8z"/>
</svg>
