<svg xmlns="http://www.w3.org/2000/svg" id="twitter-graphic" x="0px" y="0px" viewBox="0 0 112 112" style="enable-background:new 0 0 112 112;" xml:space="preserve">
  <defs>
    <style type="text/css">
      .st0{fill:#FFFFFF;}
      .st1{fill:#C1C3C6;}
      .st2{fill:#f9d843;}
      .st3{fill:#070707;}
    </style>
  </defs>
  <circle class="st0" cx="56" cy="56" r="56"></circle><line class="st1" x1="72.9" y1="91.5" x2="72.9" y2="91.5"></line><path d="M87.5,47.3c-0.4,1.1-0.7,2.3-0.9,3.4c0.7-0.1,1.5,0,2.3,0.1c4.1,0.5,7.4,3.3,8.5,6.8c0,0,0,0,0,0c2.5-1.1,3.9-2.5,3.9-3.9
C101.3,50.7,95.6,48.3,87.5,47.3z"></path><path d="M61.3,50.2c-1.9,1-3,2.2-3,3.5c0,2.1,3.1,4,7.9,5.3C64,56.4,62.3,53.5,61.3,50.2z"></path><path class="st2" d="M79.8,60.5c7.2,0,13.6-1.1,17.5-2.9c-1.1-3.5-4.3-6.3-8.5-6.8c-0.8-0.1-1.5-0.1-2.3-0.1
C88,43.1,92.8,36.8,99.4,33c-1.4-1-3-1.7-4.8-1.9c-3.4-0.4-6.7,0.8-8.8,3.1c0.3-1.5,0.9-2.9,1.8-4c0,0-0.1,0-0.1,0
c-4.8-0.6-9.2,2.1-10.7,6.2c-0.1-0.8-0.1-1.6,0-2.5c0.1-0.6,0.2-1.2,0.4-1.7c-4.1,0.7-7.4,3.7-8,7.8c-2.3-3.5-3.4-7.7-2.8-12
c0.1-0.7,0.2-1.5,0.4-2.2c-3.4,3.7-5.6,8.4-6.3,13.6c-1,8,1.5,14.6,5.8,19.7C69.9,59.9,74.6,60.5,79.8,60.5z"></path><path d="M27.5,39.8H7c-2.2,0-4-1.8-4-4s1.8-4,4-4h20.5c2.2,0,4,1.8,4,4S29.7,39.8,27.5,39.8z"></path><path d="M113.1,54c0-5.1-6.1-10.6-19.2-14c-1,1.1-1.9,2.3-2.6,3.6c10.1,2.4,17.8,6.1,17.8,10.4c0,6.2-18,13.2-43.9,13.2
c-4.2,0-8.3-0.2-12.2-0.6V41.4c1.7-0.2,3.4-0.3,5.1-0.4c0-0.7,0.1-1.3,0.2-2c0.1-0.7,0.2-1.4,0.3-2c-1.9,0.1-3.8,0.2-5.6,0.4V17
c0-3.1-2.5-5.7-5.7-5.7H18.5c-3.1,0-5.7,2.5-5.7,5.7v0.1l1.5,10.6h4l-1.6-10.9c0.1-0.9,0.8-1.6,1.7-1.6h28.9c0.9,0,1.7,0.8,1.7,1.7
v20.8v28.5c-3.1-0.2-10.4-0.8-16-2.4c2.9,2.4,14.4,6.7,32.2,7.3c16.4,0,33.6-3,42.2-8.8c-5.8,14.2-26.6,30.1-56.4,30.1
c-1.1,0-2,0.9-2,2s0.9,2,2,2c5.6,0,11.1-0.6,16.4-1.7l-6.6,10.9c-0.6,0.9-0.3,2.2,0.7,2.7c0.3,0.2,0.7,0.3,1,0.3
c0.7,0,1.3-0.3,1.7-1L73,93.5c8.3-2.3,15.9-5.9,22.5-10.7C106.5,74.8,113.1,63.6,113.1,54C113.1,54,113.1,54,113.1,54
C113.1,54,113.1,54,113.1,54z"></path><path d="M20.7,43.8h-4l8.1,55.8c0.1,1,1,1.7,2,1.7c0.1,0,0.2,0,0.3,0c1.1-0.2,1.9-1.2,1.7-2.3L20.7,43.8z"></path><path class="st1" d="M106.2,63.2c-9,5.2-25.3,7.9-40.9,8c-17.8-0.6-29.4-4.9-32.2-7.3c0,0,0,0,0.1,0c-5.8-2.1-9.4-4.7-10.6-7.7
L27.3,89c7.2-0.4,15.1-1.3,23.4-2.9C76.1,81.3,97.2,72.3,106.2,63.2z"></path>
</svg>