<svg xmlns="http://www.w3.org/2000/svg" id="vinyl-graphic" x="0px" y="0px" viewBox="0 0 112 112" style="enable-background:new 0 0 112 112;" xml:space="preserve">
  <defs>
    <style type="text/css">
      .st0{fill:#FFFFFF;}
      .st1{fill:#C1C3C6;}
      .st2{fill:#f9d843;}
      .st3{fill:#070707;}
    </style>
  </defs>
  <circle class="st0" cx="56" cy="56" r="56"></circle><path d="M74.2,75.7l-2.8-2.8l24-24c-1.4-7.7-5.1-15.1-11.1-21.1L27.7,84.3c15.6,15.6,40.9,15.6,56.6,0c8.3-8.3,12.2-19.5,11.7-30.4
L74.2,75.7z"></path><path class="st1" d="M56,21.1L56,21.1c9.3,0,18.1,3.6,24.7,10.2l3.6-3.6c-15.6-15.6-40.9-15.6-56.6,0s-15.6,40.9,0,56.6l3.6-3.6
C24.7,74.1,21.1,65.3,21.1,56v0c0-0.6,0.4-1,1-1c0.6,0,1,0.4,1,1l0,0c0,8.8,3.4,17.1,9.6,23.3l3.5-3.5C31,70.5,28.1,63.5,28.1,56v0
c0-0.6,0.4-1,1-1c0.6,0,1,0.4,1,1l0,0c0,6.9,2.7,13.4,7.6,18.3l3.5-3.5c-3.9-4-6.1-9.2-6.1-14.8v0c0-0.6,0.4-1,1-1c0.6,0,1,0.4,1,1
h0c0,5,2,9.8,5.5,13.4l26.8-26.8c-3.6-3.6-8.3-5.5-13.4-5.5v0c-0.6,0-1-0.4-1-1c0-0.6,0.4-1,1-1h0c5.6,0,10.8,2.2,14.8,6.1l3.5-3.5
c-4.9-4.9-11.4-7.6-18.3-7.6v0c-0.6,0-1-0.4-1-1c0-0.6,0.4-1,1-1h0c7.5,0,14.5,2.9,19.7,8.1l3.5-3.5c-6.2-6.2-14.5-9.6-23.3-9.6v0
c-0.6,0-1-0.4-1-1C55,21.6,55.5,21.1,56,21.1z"></path><circle class="st0" cx="56" cy="56" r="14"></circle><path class="st1" d="M65.9,46.1c5.5,5.5,5.5,14.3,0,19.8c-5.5,5.5-14.3,5.5-19.8,0L65.9,46.1z"></path><circle cx="56" cy="56" r="4"></circle><path class="st2" d="M69.9,71.4l-7.5,7.5c-1.3,1.3-1.5,3.3-0.6,4.8l2-2l1.4,1.4l-2,2c0.6,0.4,1.3,0.6,2,0.6c1,0,2-0.4,2.8-1.2
l7.5-7.5L69.9,71.4z"></path><path d="M103.1,46.7l-3.5,3.5c1.7,13.1-2.4,26.8-12.5,36.9c-17.2,17.2-45,17.2-62.2,0c-17.2-17.2-17.2-45,0-62.2
c17.2-17.2,45-17.2,62.2,0c5.9,5.9,9.8,13,11.6,20.6l3.3-3.3c-0.4-1.3-0.8-2.5-1.3-3.8c-2.3-6-5.9-11.5-10.7-16.3
c-18.7-18.7-49.1-18.7-67.9,0c-18.7,18.7-18.7,49.1,0,67.9s49.1,18.7,67.9,0C99.3,80.6,104,68.3,104,56c0-3-0.3-6-0.8-9
C103.1,46.9,103.1,46.8,103.1,46.7z"></path><path class="st1" d="M76.9,56c0-5.6-2.2-10.8-6.1-14.8l-1.4,1.4c3.6,3.6,5.5,8.3,5.5,13.4h0c0,0.6,0.4,1,1,1
C76.4,57,76.9,56.6,76.9,56L76.9,56z"></path><path class="st1" d="M83.9,56c0-7.5-2.9-14.5-8.1-19.7l-1.4,1.4c4.9,4.9,7.6,11.4,7.6,18.3h0c0,0.6,0.4,1,1,1
C83.4,57,83.9,56.6,83.9,56L83.9,56z"></path><path class="st1" d="M90.8,53.4c-0.6-8.3-4.1-16.1-10.1-22.1l-1.4,1.4c6,6.1,9.4,14.1,9.6,22.6L90.8,53.4z"></path><path class="st1" d="M56,76.9c-5.6,0-10.8-2.2-14.8-6.1l1.4-1.4c3.6,3.6,8.3,5.5,13.4,5.5v0c0.6,0,1,0.4,1,1
C57,76.4,56.6,76.9,56,76.9L56,76.9z"></path><path class="st1" d="M56,83.9c-7.5,0-14.5-2.9-19.7-8.1l1.4-1.4c4.9,4.9,11.4,7.6,18.3,7.6v0c0.6,0,1,0.4,1,1
C57,83.4,56.6,83.9,56,83.9L56,83.9z"></path><path class="st1" d="M56,90.9c-9.3,0-18.1-3.6-24.7-10.2l1.4-1.4c6.2,6.2,14.5,9.6,23.3,9.6v0c0.6,0,1,0.4,1,1
C57,90.4,56.6,90.9,56,90.9L56,90.9z"></path>
</svg>