<?xml version="1.0" encoding="utf-8"?>
<!-- Generator: Adobe Illustrator 24.0.3, SVG Export Plug-In . SVG Version: 6.00 Build 0)  -->
<svg version="1.1" id="Layer_1" xmlns="http://www.w3.org/2000/svg" xmlns:xlink="http://www.w3.org/1999/xlink" x="0px" y="0px"
	 viewBox="0 0 150 120" style="enable-background:new 0 0 150 120;" xml:space="preserve">
<style type="text/css">
	.st0{fill:#151414;}
</style>
<g>
	<path class="st0" d="M74.7,11.2C59.5,11.2,46,21.3,41.8,36c3,10.3,10.4,18.4,20,22.3l1-1c-3.1-3.1-4.9-7.2-4.9-11.9
		c0-9.3,7.5-16.7,16.8-16.7s16.8,7.6,16.8,16.7c0,4.7-1.9,8.8-4.9,11.9l1,1c9.5-3.9,17.1-12,20-22.3C103.4,21.3,89.9,11.2,74.7,11.2
		z"/>
	<path class="st0" d="M113.9,22.7c-0.4-0.6-1.2-0.9-1.9-0.4l-6.1,3.6c0.4,0.7,0.9,1.5,1.3,2.3l6.1-3.6
		C114,24.1,114.2,23.3,113.9,22.7z"/>
	<path class="st0" d="M99.3,18l4.6-5.5c0.4-0.5,0.4-1.4-0.2-1.9c-0.5-0.4-1.4-0.4-1.9,0.2l-4.6,5.5C98,16.8,98.7,17.4,99.3,18z"/>
	<path class="st0" d="M88.5,11.2l2.4-6.7c0.3-0.7-0.1-1.4-0.8-1.7s-1.4,0.1-1.7,0.8L86,10.3C86.8,10.5,87.6,10.8,88.5,11.2z"/>
	<path class="st0" d="M74.7,8.5c0.4,0,0.9,0,1.3,0V1.3C76,0.6,75.4,0,74.7,0s-1.3,0.6-1.3,1.3v7.1C73.7,8.5,74.2,8.5,74.7,8.5z"/>
	<path class="st0" d="M60.7,11.2c0.8-0.4,1.7-0.6,2.5-0.9l-2.4-6.7c-0.3-0.7-1.1-1.1-1.7-0.8c-0.7,0.2-1.1,1-0.8,1.7L60.7,11.2z"/>
	<path class="st0" d="M49.9,18c0.6-0.6,1.3-1.2,2.1-1.7l-4.6-5.5c-0.4-0.5-1.3-0.6-1.9-0.2c-0.5,0.4-0.6,1.3-0.2,1.9L49.9,18z"/>
	<path class="st0" d="M43.4,25.7l-6.2-3.6c-0.6-0.4-1.4-0.2-1.8,0.4s-0.2,1.4,0.4,1.8L42,28C42.5,27.3,42.9,26.5,43.4,25.7z"/>
	<path class="st0" d="M109.5,38.5c-3.4,9.9-10.7,17.6-19.9,21.8l10.3,10.3H49.5l10.2-10.3c-9.2-4.1-16.6-11.9-20-21.8
		C39.2,40.7,39,43,39,45.2v35.5l7.6-7.6h55.8l7.6,7.6V45.3C110.2,43,109.9,40.7,109.5,38.5z"/>
	<path class="st0" d="M79.9,50.6c1.3-1.3,2.2-3.2,2.2-5.3c0-3.1-1.8-5.6-4.4-6.8c-0.2,1.5-1.5,2.8-3.1,2.8c-1.5,0-2.9-1.2-3.1-2.8
		c-2.6,1.2-4.4,3.8-4.4,6.8c0,2.1,0.8,4,2.2,5.3l-9.6,9.6l14.9,8.6l14.9-8.6L79.9,50.6z"/>
	<g>
		<path class="st0" d="M114.7,86.7H34.6c-0.7,0-1.3-0.6-1.3-1.3s0.6-1.3,1.3-1.3h80.1c0.7,0,1.3,0.6,1.3,1.3S115.4,86.7,114.7,86.7z
			"/>
		<path class="st0" d="M130,102H19.3c-0.7,0-1.3-0.6-1.3-1.3s0.6-1.3,1.3-1.3h110.6c0.7,0,1.3,0.6,1.3,1.3S130.7,102,130,102z"/>
		<path class="st0" d="M148,120H1.3c-0.7,0-1.3-0.6-1.3-1.3s0.6-1.3,1.3-1.3H148c0.7,0,1.3,0.6,1.3,1.3S148.7,120,148,120z"/>
	</g>
</g>
</svg>
