<?xml version="1.0" encoding="utf-8"?>
<!-- Generator: Adobe Illustrator 24.0.3, SVG Export Plug-In . SVG Version: 6.00 Build 0)  -->
<svg version="1.1" id="Layer_1" xmlns="http://www.w3.org/2000/svg" xmlns:xlink="http://www.w3.org/1999/xlink" x="0px" y="0px"
	 viewBox="0 0 132 21" style="enable-background:new 0 0 132 21;" xml:space="preserve">
<style type="text/css">
	.st0{fill-rule:evenodd;clip-rule:evenodd;fill:#FFFFFF;}
</style>
<path class="st0" d="M125.3,9.2v2.9h1.9v2.8c0,0.3,0,0.5-0.1,0.8c-0.4,1.1-1.5,1.7-2.6,1.3c-0.6-0.2-1.1-0.7-1.3-1.3
	c0-0.3-0.1-0.5-0.1-0.8V6c0-0.3,0-0.6,0.1-0.9c0.3-1.1,1.4-1.7,2.5-1.3c0.6,0.2,1.1,0.7,1.3,1.3c0,0.3,0.1,0.5,0.1,0.8v1.1h4.7V6.3
	c0-0.4,0-0.9,0-1.3c-0.4-3.7-3.3-4.8-6.6-4.8c-3.3,0-6.2,1.2-6.6,4.8c0,0.3-0.1,0.9-0.1,1.3v8.2c0,0.4,0,0.9,0.1,1.3
	c0.3,3.6,3.3,4.8,6.6,4.8s6.3-1.3,6.6-4.8c0.1-0.7,0.1-0.9,0.1-1.3V9.3L125.3,9.2z M92.6,0.6h-4.8v14.5c0,0.3,0,0.5,0,0.8
	c-0.3,1-1.3,1.6-2.3,1.3c-0.6-0.2-1.1-0.7-1.3-1.3c0-0.3-0.1-0.5,0-0.8V0.6h-4.8v14.1c0,0.4,0,1.1,0,1.3c0.3,3.7,3.1,4.8,6.6,4.8
	c3.5,0,6.3-1.2,6.6-4.8c0-0.4,0.1-0.9,0-1.3V0.6z M48.7,0.6l-2.4,15.3L44,0.6h-7.7l-0.4,19.6h4.7l0.1-18.1L44,20.2h4.8L52,2.1
	l0.1,18.1h4.7L56.4,0.6H48.7z M20.3,0.6l-3.5,19.6h5.1l2.6-18.1l2.6,18.1h5.1L28.6,0.6H20.3z M109.3,16.4l-4.5-15.8h-7V20h4.6
	l-0.3-16.3l4.8,16.3h6.7V0.6H109L109.3,16.4z M66.4,5.7c-0.1-0.3-0.1-0.7,0-1c0.1-0.8,0.9-1.4,1.7-1.3C69,3.3,69.8,4,69.9,4.9
	c0,0.1,0,0.2,0,0.3v1.2h4.7V5c0-4.2-3.6-4.9-6.3-4.9c-3.3,0-6,1.1-6.5,4.3c-0.2,0.9-0.1,1.8,0,2.6c0.8,4,7.4,5.1,8.4,7.6
	c0.1,0.5,0.1,1,0,1.4c-0.1,0.6-0.6,1.3-1.8,1.3c-0.9,0.1-1.7-0.5-1.9-1.5c0-0.1,0-0.2,0-0.3v-1.9h-5v1.5c0,4.3,3.3,5.6,6.8,5.6
	c3.4,0,6.2-1.2,6.6-4.4c0.2-1.1,0.2-2.1,0-3.2C74,9.2,67,8,66.4,5.7z M5.1,5.7C5,5.3,5,5,5.1,4.7C5.2,3.8,6,3.2,6.8,3.3
	c0.9-0.1,1.7,0.6,1.7,1.5c0,0.1,0,0.2,0,0.3v1.2h4.7V4.9C13.3,0.7,9.5,0,6.9,0C3.5,0,0.8,1.2,0.3,4.4C0.1,5.2,0.1,6.1,0.3,7
	c0.8,4,7.5,5.2,8.5,7.7c0.1,0.5,0.1,1,0,1.5c-0.2,0.9-1,1.5-1.8,1.3C6,17.6,5.2,16.9,5.1,16c0-0.1,0-0.2,0-0.3v-1.9H0v1.5
	C0,19.7,3.3,21,6.9,21c3.4,0,6.2-1.2,6.7-4.5c0.2-1.1,0.2-2.1,0-3.2C12.8,9.2,5.6,8,5.1,5.7z"/>
</svg>
