<?xml version="1.0" encoding="UTF-8"?>
<svg width="198px" height="96px" viewBox="0 0 198 96" version="1.1" xmlns="http://www.w3.org/2000/svg" xmlns:xlink="http://www.w3.org/1999/xlink">
    <title>Group</title>
    <g id="Page-1" stroke="none" stroke-width="1" fill="none" fill-rule="evenodd">
        <g id="Desktop-Comp" transform="translate(-578.000000, -2941.000000)">
            <g id="Group" transform="translate(577.999674, 2940.999900)">
                <path d="M102.574326,26.549 L111.189326,0 L10.7273259,25.025 C10.7273259,25.025 4.87232588,45.865 2.02232588,55.968 C-0.212674124,63.893 1.76732588,71.862 8.80232588,75.44 C14.4113259,78.293 41.8663259,90.657 41.8663259,90.657 L197.765326,48.378 L113.102326,44.331 C102.371326,44.331 100.056326,34.24 102.574326,26.549 Z" id="Fill-1" fill="#9ED6E5"></path>
                <path d="M41.8660259,90.6572 C41.8660259,90.6572 14.4110259,78.2932 8.80302588,75.4402 C2.37302588,72.1702 0.177025876,65.2292 1.55202588,58.0102 C1.31202588,58.8582 1.08402588,59.6672 0.874025876,60.4122 C-1.36197412,68.3372 0.620025876,76.3062 7.65502588,79.8852 C13.2630259,82.7372 40.7190259,95.1012 40.7190259,95.1012 L196.617026,52.8222 L197.765026,48.3782 L41.8660259,90.6572 Z" id="Fill-4" fill="#FFFFFF"></path>
                <path d="M102.884008,25.5558 C102.960008,25.2411333 105.728514,16.7226333 111.189526,0.0003 L10.7275259,25.0253 C10.7275259,25.0253 6.41452588,40.3733 3.39052588,51.1113 L102.884008,25.5558 Z" id="Fill-9" fill="#72B2CE"></path>
            </g>
        </g>
    </g>
</svg>