<?xml version="1.0" encoding="UTF-8"?>
<svg width="173px" height="70px" viewBox="0 0 173 70" version="1.1" xmlns="http://www.w3.org/2000/svg" xmlns:xlink="http://www.w3.org/1999/xlink">
    <title>Group 12</title>
    <defs>
        <polygon id="path-1" points="0.2091 0.3527 171.934 0.3527 171.934 66 0.2091 66"></polygon>
        <polygon id="path-3" points="0 0.0251 172.9337 0.0251 172.9337 66.0001 0 66.0001"></polygon>
        <polygon id="path-5" points="0.0181 0.3527 172.934 0.3527 172.934 66.0007 0.0181 66.0007"></polygon>
    </defs>
    <g id="Page-1" stroke="none" stroke-width="1" fill="none" fill-rule="evenodd">
        <g id="Desktop-Comp" transform="translate(-381.000000, -3046.000000)">
            <g id="Group-12" transform="translate(381.000000, 3046.000000)">
                <g id="Group-3" transform="translate(1.000000, 3.975100)">
                    <mask id="mask-2" fill="white">
                        <use xlink:href="#path-1"></use>
                    </mask>
                    <g id="Clip-2"></g>
                    <path d="M98.1901,25.6487 C88.8421,25.6487 86.5021,18.5517 86.2431,12.9347 L85.9511,0.3527 L13.1031,36.2377 L0.2091,36.7187 C0.4451,39.7077 1.2131,48.6777 7.3411,51.7947 C12.2261,54.2787 36.1411,66.0007 36.1411,66.0007 L171.9341,28.1727 L171.9341,26.1727 L98.1901,25.6487 Z" id="Fill-1" fill="#FFFFFF" mask="url(#mask-2)"></path>
                </g>
                <g id="Group-6" transform="translate(0.000000, 0.975100)">
                    <mask id="mask-4" fill="white">
                        <use xlink:href="#path-3"></use>
                    </mask>
                    <g id="Clip-5"></g>
                    <path d="M172.9337,29.1731 L99.1897,25.6491 C89.8417,25.6491 87.5017,18.5521 87.2437,12.9351 L86.9437,0.0251 L-0.0003,18.5661 L1.2087,39.7191 C1.4457,42.7071 2.2137,49.6291 8.3417,52.7451 C13.2257,55.2301 37.1407,66.0001 37.1407,66.0001 L172.9337,29.1731 Z" id="Fill-4" fill="#DDDDDD" mask="url(#mask-4)"></path>
                </g>
                <g id="Group-9" transform="translate(0.000000, 0.975100)">
                    <mask id="mask-6" fill="white">
                        <use xlink:href="#path-5"></use>
                    </mask>
                    <g id="Clip-8"></g>
                    <path d="M99.1901,25.6487 C89.8421,25.6487 87.5021,18.5517 87.2431,12.9347 L86.9511,0.3527 L0.0181,18.8777 L1.2091,39.7187 C1.4451,42.7077 2.2131,49.6287 8.3411,52.7467 C13.2261,55.2307 37.1411,66.0007 37.1411,66.0007 L172.9341,29.1727 L99.1901,25.6487 Z" id="Fill-7" fill="#DDDDDD" mask="url(#mask-6)"></path>
                </g>
                <path d="M87.2433,13.9099 L86.9513,1.3279 L0.0173,19.8529 L0.9463,36.0979 L87.4563,16.1199 C87.3453,15.3719 87.2763,14.6289 87.2433,13.9099" id="Fill-10" fill="#CCCCCC"></path>
            </g>
        </g>
    </g>
</svg>