<svg xmlns="http://www.w3.org/2000/svg" viewBox="0 0 106.78 57.07"><defs><style>.cls-1{fill:#fff;}</style></defs><title>Asset 1</title><g id="Layer_2" data-name="Layer 2"><g id="Layer_1-2" data-name="Layer 1"><path class="cls-1" d="M9.55,3.59A5.11,5.11,0,0,0,6,2c-1.42,0-2.43.75-2.43,1.83,0,2.95,6.63,2.91,6.63,7.8a4.11,4.11,0,0,1-4.29,4.17,6.74,6.74,0,0,1-4.29-1.42v-2.8a5.15,5.15,0,0,0,4,2.24c1.71,0,2.49-1.08,2.49-1.94,0-3.18-6.62-3.54-6.62-7.76C1.49,1.6,3.33,0,6.14,0A6.13,6.13,0,0,1,9.55,1.08Z"/><path class="cls-1" d="M21.09.2C24.43.2,26,2.19,26,4.62s-1.62,4.31-5.17,4.31H18.51v6.65H16.3V.2ZM18.51,6.94H21c1.64,0,2.69-.88,2.69-2.41,0-1.13-.6-2.34-2.6-2.34H18.51Z"/><path class="cls-1" d="M35.88.2c3.1,0,5,1.65,5,4.31a3.84,3.84,0,0,1-2.56,3.76c1.39.93,2.25,2.35,3.42,4.26.65,1.06,1,1.58,2.08,3.05H41.23l-2-3.16c-2-3.16-2.94-3.52-4.07-3.52h-.92v6.68H32V.2ZM34.22,6.92h1.42c2.35,0,3-1.22,3-2.5,0-1.44-.87-2.32-3-2.32H34.22Z"/><rect class="cls-1" x="48.03" y="0.05" width="2.2" height="15.38"/><polygon class="cls-1" points="71.44 15.58 69.55 15.58 59.31 3.74 59.31 15.58 57.25 15.58 57.25 0.2 59 0.2 69.37 12.11 69.37 0.2 71.44 0.2 71.44 15.58"/><path class="cls-1" d="M91.19,14.52a13.37,13.37,0,0,1-5.84,1.26c-4.69,0-8.14-3.29-8.14-7.8a7.94,7.94,0,0,1,8.21-8,12.38,12.38,0,0,1,5.46,1.31V3.54A11.41,11.41,0,0,0,85.38,2a5.8,5.8,0,0,0-5.91,5.88c0,3.43,2.56,5.84,6.2,5.84A10.68,10.68,0,0,0,89,13.14V10H86.05V8h5.14Z"/><path class="cls-1" d="M105.06,3.59A5.11,5.11,0,0,0,101.47,2c-1.41,0-2.42.75-2.42,1.83,0,2.95,6.62,2.91,6.62,7.8a4.11,4.11,0,0,1-4.29,4.17,6.74,6.74,0,0,1-4.29-1.42v-2.8a5.17,5.17,0,0,0,4,2.24c1.71,0,2.5-1.08,2.5-1.94C103.63,8.68,97,8.32,97,4.1,97,1.6,98.84,0,101.65,0a6.08,6.08,0,0,1,3.41,1.08Z"/><polygon class="cls-1" points="9.31 43.54 3.61 43.54 3.61 47.74 9.31 47.74 9.31 49.7 3.61 49.7 3.61 56.74 1.52 56.74 1.52 41.58 9.31 41.58 9.31 43.54"/><path class="cls-1" d="M24.61,57H22.47l-1.95-4.47h-6.2L12.47,57H10.33l6.28-15.25h1.47Zm-9.48-6.43h4.54l-2.36-5.49Z"/><path class="cls-1" d="M34.37,45A4.83,4.83,0,0,0,31,43.46c-1.35,0-2.31.74-2.31,1.8,0,2.92,6.31,2.87,6.31,7.7a4,4,0,0,1-4.08,4.11,6.28,6.28,0,0,1-4.1-1.4V52.91a4.89,4.89,0,0,0,3.86,2.2A2.11,2.11,0,0,0,33,53.2c0-3.13-6.31-3.49-6.31-7.65,0-2.46,1.75-4,4.43-4a5.61,5.61,0,0,1,3.25,1.07Z"/><polygon class="cls-1" points="50.52 56.74 48.42 56.74 48.42 50.14 40.24 50.14 40.24 56.74 38.15 56.74 38.15 41.58 40.24 41.58 40.24 48.18 48.42 48.18 48.42 41.58 50.52 41.58 50.52 56.74"/><rect class="cls-1" x="54.61" y="41.71" width="2.1" height="15.16"/><path class="cls-1" d="M68.42,41.38a7.78,7.78,0,1,1-7.84,7.78,7.57,7.57,0,0,1,7.84-7.78m0,13.56a5.78,5.78,0,1,0-5.67-5.78,5.59,5.59,0,0,0,5.67,5.78"/><polygon class="cls-1" points="93.51 56.74 91.71 56.74 81.95 45.07 81.95 56.74 79.98 56.74 79.98 41.58 81.65 41.58 91.54 53.32 91.54 41.58 93.51 41.58 93.51 56.74"/><path class="cls-1" d="M105.25,44.92a4.79,4.79,0,0,0-3.42-1.58c-1.35,0-2.32.73-2.32,1.8,0,2.91,6.32,2.86,6.32,7.69a4,4,0,0,1-4.09,4.11,6.25,6.25,0,0,1-4.09-1.4V52.78A4.88,4.88,0,0,0,101.51,55a2.12,2.12,0,0,0,2.37-1.92c0-3.13-6.31-3.48-6.31-7.64,0-2.47,1.75-4,4.43-4a5.71,5.71,0,0,1,3.25,1.07Z"/><rect class="cls-1" x="23.48" y="20.83" width="2.19" height="15.38"/><polygon class="cls-1" points="45.29 36.2 43.41 36.2 33.2 24.37 33.2 36.2 31.14 36.2 31.14 20.83 32.88 20.83 43.23 32.73 43.23 20.83 45.29 20.83 45.29 36.2"/><path class="cls-1" d="M50.78,20.83h5.93c5.64,0,8.13,4.06,8.13,7.68a7.74,7.74,0,0,1-8.11,7.69H50.78ZM53,34.22h3.49c5,0,6.11-3.81,6.11-5.71,0-3.08-2-5.7-6.22-5.7H53Z"/><path class="cls-1" d="M76.26,20.63a7.9,7.9,0,1,1,0,15.78,7.89,7.89,0,1,1,0-15.78m0,13.75a5.87,5.87,0,1,0-5.93-5.86,5.76,5.76,0,0,0,5.93,5.86"/><polygon class="cls-1" points="101.36 36.34 100.99 36.34 96.61 23.76 92.18 36.34 91.81 36.34 86.4 20.83 88.32 20.83 92 31.43 95.7 20.83 97.52 20.83 101.25 31.43 104.88 20.83 106.78 20.83 101.36 36.34"/><polygon class="cls-1" points="14.96 36.14 14.59 36.14 10.2 23.57 5.78 36.14 5.41 36.14 0 20.63 1.92 20.63 5.6 31.23 9.3 20.63 11.12 20.63 14.84 31.23 18.48 20.63 20.38 20.63 14.96 36.14"/></g></g></svg>