<?xml version="1.0" encoding="utf-8"?>
<!-- Generator: Adobe Illustrator 24.0.3, SVG Export Plug-In . SVG Version: 6.00 Build 0)  -->
<svg version="1.1" id="Layer_1" xmlns="http://www.w3.org/2000/svg" xmlns:xlink="http://www.w3.org/1999/xlink" x="0px" y="0px"
	 viewBox="0 0 122 38" style="enable-background:new 0 0 122 38;" xml:space="preserve">
<style type="text/css">
	.st0{fill-rule:evenodd;clip-rule:evenodd;fill:#FFFFFF;}
</style>
<path class="st0" d="M108.9,35.9c-4.6,0-8.3-4.7-8.3-10.6c0-5.8,3.7-10.6,8.3-10.6c4.6,0,8.3,4.7,8.3,10.6
	C117.2,31.2,113.5,35.9,108.9,35.9 M83.1,35.9c-4.6,0-8.3-4.7-8.3-10.6c0-5.8,3.7-10.6,8.3-10.6c4.6,0,8.3,4.7,8.3,10.6
	C91.3,31.2,87.6,35.9,83.1,35.9 M38.9,35.9c-4.6,0-8.3-4.7-8.3-10.6c0-5.8,3.7-10.6,8.3-10.6c4.6,0,8.3,4.7,8.3,10.6
	C47.2,31.2,43.5,35.9,38.9,35.9 M13.1,35.9c-4.6,0-8.3-4.7-8.3-10.6c0-5.8,3.7-10.6,8.3-10.6c4.6,0,8.3,4.7,8.3,10.6
	C21.4,31.2,17.7,35.9,13.1,35.9 M108.9,13.6c-6.6,0-12,4.4-12.9,10.1c-0.9-5.7-6.3-10.1-12.9-10.1c-2.8,0-5.5,0.8-7.6,2.2l3.7-9.4
	c-2.1-2.7-4.8-4.9-8.1-6.4L61,26.7L51,0c-3.2,1.5-6,3.7-8.1,6.4l3.7,9.5c-2.2-1.4-4.8-2.2-7.6-2.2c-6.6,0-12,4.4-12.9,10.1
	c-0.9-5.7-6.3-10.1-12.9-10.1C5.9,13.6,0,18.9,0,25.5C0,32,5.9,37.3,13.1,37.3c6.6,0,12-4.4,12.9-10.1c0.9,5.7,6.3,10.1,12.9,10.1
	c6,0,11.1-3.7,12.6-8.7l3.4,8.7c1.9,0.5,3.9,0.7,5.9,0.7c2.1,0,4.2-0.3,6.1-0.8l3.4-8.6c1.5,5,6.6,8.7,12.6,8.7
	c6.6,0,12-4.4,12.9-10.1c0.9,5.7,6.3,10.1,12.9,10.1c7.2,0,13.1-5.3,13.1-11.8C122,18.9,116.1,13.6,108.9,13.6"/>
</svg>
