<?xml version="1.0" encoding="UTF-8"?>
<svg width="65px" height="106px" viewBox="0 0 65 106" version="1.1" xmlns="http://www.w3.org/2000/svg" xmlns:xlink="http://www.w3.org/1999/xlink">
    <title>Group 9</title>
    <g id="Page-1" stroke="none" stroke-width="1" fill="none" fill-rule="evenodd">
        <g id="Desktop-Comp" transform="translate(-1015.000000, -7630.000000)">
            <g id="Group-9" transform="translate(1015.000000, 7630.000000)">
                <polygon id="Fill-1" fill="#000000" points="32.5 105 65 105 65 0 32.5 0"></polygon>
                <polygon id="Fill-2" fill="#31302E" points="59.4999 -0.0001 32.4999 52.3179 64.9999 14.9479 64.9999 -0.0001"></polygon>
                <polygon id="Fill-3" fill="#31302E" points="32.4999 52.3178 64.9999 39.8608 64.9999 29.1208"></polygon>
                <polygon id="Fill-4" fill="#31302E" points="32.4999 52.6814 32.4999 52.6844 64.9999 57.0914 64.9999 48.2744"></polygon>
                <polygon id="Fill-5" fill="#31302E" points="64.9998 75.8789 64.9998 65.1389 32.4998 52.6819"></polygon>
                <polygon id="Fill-6" fill="#31302E" points="59.4999 105.0002 64.9999 105.0002 64.9999 90.0532 32.4999 52.6822"></polygon>
                <polygon id="Fill-7" fill="#31302E" points="0 -0.0001 0 104.9999 32.472 104.9999 32.472 105.0289 43.971 105.0289 32.5 52.8429 32.5 52.2159 43.971 0.0289 32.5 0.0289 32.5 -0.0001"></polygon>
                <polygon id="Fill-8" fill="#FFFFFF" points="48.6523 52.5003 36.1613 56.5593 36.1613 69.6923 28.4413 59.0673 15.9503 63.1253 23.6703 52.5003 15.9503 41.8753 28.4413 45.9333 36.1613 35.3083 36.1613 48.4413"></polygon>
            </g>
        </g>
    </g>
</svg>