<?xml version="1.0" encoding="UTF-8"?>
<svg width="65px" height="105px" viewBox="0 0 65 105" version="1.1" xmlns="http://www.w3.org/2000/svg" xmlns:xlink="http://www.w3.org/1999/xlink">
    <title>Group 5</title>
    <g id="Page-1" stroke="none" stroke-width="1" fill="none" fill-rule="evenodd">
        <g id="Desktop-Comp" transform="translate(-935.000000, -7630.000000)">
            <g id="Group-5" transform="translate(935.000000, 7630.000000)">
                <polygon id="Fill-1" fill="#31302E" points="0 105 65 105 65 0 0 0"></polygon>
                <path d="M24.375,24.2456 L29.927,22.7566 L28.437,17.2036 L32.5,21.2666 L36.563,17.2036 L35.073,22.7566 L40.625,24.2456 L35.073,25.7356 L36.563,31.2876 L32.5,27.2246 L28.437,31.2876 L29.927,25.7356 L24.375,24.2456 Z M24.375,43.2036 L29.927,41.7146 L28.437,36.1626 L32.5,40.2246 L36.563,36.1626 L35.073,41.7146 L40.625,43.2036 L35.073,44.6936 L36.563,50.2456 L32.5,46.1826 L28.437,50.2456 L29.927,44.6936 L24.375,43.2036 Z M24.375,62.1626 L29.927,60.6726 L28.437,55.1206 L32.5,59.1836 L36.563,55.1206 L35.073,60.6726 L40.625,62.1626 L35.073,63.6516 L36.563,69.2036 L32.5,65.1416 L28.437,69.2036 L29.927,63.6516 L24.375,62.1626 Z M24.375,81.1206 L29.927,79.6316 L28.437,74.0786 L32.5,78.1416 L36.563,74.0786 L35.073,79.6316 L40.625,81.1206 L35.073,82.6106 L36.563,88.1626 L32.5,84.0996 L28.437,88.1626 L29.927,82.6106 L24.375,81.1206 Z" id="Fill-2" fill="#FFFFFF"></path>
                <polygon id="Fill-3" fill="#000000" points="43.333 105 54.166 105 54.166 0 43.333 0"></polygon>
                <polygon id="Fill-4" fill="#000000" points="10.833 105 21.666 105 21.666 0 10.833 0"></polygon>
            </g>
        </g>
    </g>
</svg>