<?xml version="1.0" encoding="utf-8"?>
<!-- Generator: Adobe Illustrator 24.0.3, SVG Export Plug-In . SVG Version: 6.00 Build 0)  -->
<svg version="1.1" id="Layer_1" xmlns="http://www.w3.org/2000/svg" xmlns:xlink="http://www.w3.org/1999/xlink" x="0px" y="0px"
	 viewBox="0 0 176 100" style="enable-background:new 0 0 176 100;" xml:space="preserve">
<style type="text/css">
	.st0{fill-rule:evenodd;clip-rule:evenodd;fill:#151414;}
</style>
<path class="st0" d="M5.4,89.9c-5.1-6.6-6.6-15.3-4.3-24.7c0-0.1,0.9-4.6,5.4-4.5c3,0.1,5.5,2.4,5.5,5.5c0,1-0.2,1.9-0.7,2.7l0,0
	c-0.3,0.4-0.6,0.8-0.9,1.2c-3.2,4-2,9.6-1.5,11.2c0.6,1.5,1.4,2.9,2.4,4.2c3.6,4.7,9.5,7.3,16.4,7.3c15.7,0,31.8-12.7,36-28.2
	L78.4,10c0.2-0.9,0.6-1.8,1.1-2.7H53c-2,0-3.7-1.6-3.7-3.6C49.4,1.6,51,0,53,0h119.3c2,0,3.7,1.6,3.7,3.6s-1.6,3.6-3.7,3.6h-26
	c-2.4,0-5.1,2.2-5.8,4.6l-4.9,17.9h13.6c2,0,3.7,1.6,3.7,3.6s-1.6,3.6-3.7,3.6h-15.6l-7.9,29.3c-0.4,1.6-1.9,2.7-3.5,2.7
	c-0.3,0-0.6,0-1-0.1c-0.9-0.2-1.7-0.9-2.2-1.7c-0.5-0.8-0.6-1.8-0.4-2.8L133.5,10c0.2-0.9,0.6-1.8,1.1-2.7H91.3
	c-2.4,0-5.1,2.2-5.8,4.6l-4.9,17.9H96c2,0,3.7,1.6,3.7,3.6S98.1,37,96,37H78.7l-6.5,23.9c0.7-0.1,1.4-0.2,2.1-0.2h24.5
	c2,0,3.7,1.6,3.7,3.6c0,2-1.6,3.6-3.7,3.6H74.3c-2.1,0-4.4,1.6-5.4,3.7v0.1L68.7,72c-7.1,16.2-24.4,28-41.1,28
	C18.3,100,10.4,96.4,5.4,89.9z"/>
</svg>
