<svg xmlns="http://www.w3.org/2000/svg" id="linkedin-icon" x="0px" y="0px" viewBox="0 0 24 24" style="enable-background:new 0 0 24 24;" xml:space="preserve">
  <defs>
  <style type="text/css">
    .st2{fill:#f9d843;}
  </style>
  </defs>
  <path class="st2" d="M21,0H3C1.3,0,0,1.3,0,3v18c0,1.7,1.3,3,3,3h18c1.7,0,3-1.3,3-3V3C24,1.3,22.7,0,21,0z M7,20.4h-4V8.5h4V20.4z M5.1,6.6c-1.1,0-2-0.9-2-2c0-1.1,0.9-2,2-2s2,0.9,2,2C7,5.7,6.2,6.6,5.1,6.6z M20.9,20.4h-4v-5.7c0-3.7-4-3.4-4,0v5.7H9V8.5h4v2.2 c1.7-3.2,7.9-3.4,7.9,3.1V20.4z"/>
</svg>