<?xml version="1.0" encoding="UTF-8"?>
<svg width="75px" height="122px" viewBox="0 0 75 122" version="1.1" xmlns="http://www.w3.org/2000/svg" xmlns:xlink="http://www.w3.org/1999/xlink">
    <title>Group 42</title>
    <g id="Page-1" stroke="none" stroke-width="1" fill="none" fill-rule="evenodd">
        <g id="Desktop-Comp" transform="translate(-845.000000, -7630.000000)">
            <g id="Group-42" transform="translate(845.000000, 7630.000000)">
                <polygon id="Fill-1" fill="#000000" points="12.78 25.5605 13 121.9995 37.5 93.0825 62 121.9995 62.22 25.5605"></polygon>
                <polygon id="Fill-2" fill="#31302E" points="0 -0.0004 13 121.9996 21.933 111.4566 12.78 25.5606 32.5 65.0006 32.5 98.9836 37.5 93.0816 42.5 98.9836 42.5 65.0006 62.22 25.5606 53.067 111.4566 62 121.9996 75 -0.0004"></polygon>
                <g id="Group-41" transform="translate(8.000000, 1.000000)">
                    <path d="M43.6763,22.5405 C43.6763,30.3705 37.3293,36.7165 29.5003,36.7165 C21.6713,36.7165 15.3233,30.3705 15.3233,22.5405 C15.3233,14.7115 21.6713,8.3645 29.5003,8.3645 C37.3293,8.3645 43.6763,14.7115 43.6763,22.5405" id="Fill-3" fill="#000000"></path>
                    <polygon id="Fill-5" fill="#FFFFFF" points="29.5 0.269 30.245 2.561 32.655 2.561 30.705 3.978 31.45 6.271 29.5 4.854 27.55 6.271 28.295 3.978 26.345 2.561 28.755 2.561"></polygon>
                    <polygon id="Fill-7" fill="#FFFFFF" points="29.5 44.5371 28.755 42.2451 26.345 42.2451 28.295 40.8281 27.55 38.5351 29.5 39.9521 31.45 38.5351 30.705 40.8281 32.655 42.2451 30.245 42.2451"></polygon>
                    <polygon id="Fill-9" fill="#FFFFFF" points="29.5 62.3945 28.755 60.1025 26.345 60.1025 28.295 58.6855 27.55 56.3925 29.5 57.8095 31.45 56.3925 30.705 58.6855 32.655 60.1025 30.245 60.1025"></polygon>
                    <polygon id="Fill-11" fill="#FFFFFF" points="40.5669 3.2344 40.0659 5.5924 42.1529 6.7974 39.7559 7.0494 39.2549 9.4074 38.2749 7.2054 35.8769 7.4574 37.6689 5.8444 36.6879 3.6424 38.7749 4.8474"></polygon>
                    <polygon id="Fill-13" fill="#FFFFFF" points="48.6685 11.3359 47.0555 13.1279 48.2605 15.2149 46.0585 14.2349 44.4455 16.0259 44.6975 13.6289 42.4955 12.6479 44.8535 12.1469 45.1055 9.7499 46.3105 11.8369"></polygon>
                    <polygon id="Fill-15" fill="#FFFFFF" points="50.5669 1.2344 50.0659 3.5924 52.1529 4.7974 49.7559 5.0494 49.2549 7.4074 48.2749 5.2054 45.8769 5.4574 47.6689 3.8444 46.6879 1.6424 48.7749 2.8474"></polygon>
                    <polygon id="Fill-17" fill="#FFFFFF" points="58.6685 9.3359 57.0555 11.1279 58.2605 13.2149 56.0585 12.2349 54.4455 14.0259 54.6975 11.6289 52.4955 10.6479 54.8535 10.1469 55.1055 7.7499 56.3105 9.8369"></polygon>
                    <polygon id="Fill-19" fill="#FFFFFF" points="10.3315 33.4702 11.9445 31.6782 10.7395 29.5912 12.9415 30.5722 14.5545 28.7802 14.3025 31.1782 16.5045 32.1582 14.1465 32.6592 13.8945 35.0562 12.6895 32.9692"></polygon>
                    <polygon id="Fill-21" fill="#FFFFFF" points="18.4331 3.2344 20.2251 4.8474 22.3121 3.6424 21.3311 5.8444 23.1231 7.4574 20.7251 7.2054 19.7451 9.4074 19.2441 7.0494 16.8471 6.7974 18.9341 5.5924"></polygon>
                    <polygon id="Fill-23" fill="#FFFFFF" points="22.0347 50.7495 24.0557 49.4365 23.4327 47.1085 25.3057 48.6245 27.3277 47.3125 26.4637 49.5625 28.3367 51.0795 25.9297 50.9535 25.0657 53.2045 24.4417 50.8755"></polygon>
                    <polygon id="Fill-25" fill="#FFFFFF" points="36.9653 50.7495 34.5583 50.8755 33.9343 53.2045 33.0703 50.9535 30.6633 51.0795 32.5363 49.5625 31.6723 47.3125 33.6943 48.6245 35.5673 47.1085 34.9443 49.4365"></polygon>
                    <polygon id="Fill-27" fill="#FFFFFF" points="10.3315 11.3359 12.6895 11.8369 13.8945 9.7499 14.1465 12.1469 16.5045 12.6479 14.3025 13.6289 14.5545 16.0259 12.9415 14.2349 10.7395 15.2149 11.9445 13.1279"></polygon>
                    <polygon id="Fill-29" fill="#FFFFFF" points="8.4331 1.2344 10.2251 2.8474 12.3121 1.6424 11.3311 3.8444 13.1231 5.4574 10.7251 5.2054 9.7451 7.4074 9.2441 5.0494 6.8471 4.7974 8.9341 3.5924"></polygon>
                    <polygon id="Fill-31" fill="#FFFFFF" points="0.3315 9.3359 2.6895 9.8369 3.8945 7.7499 4.1465 10.1469 6.5045 10.6479 4.3025 11.6289 4.5545 14.0259 2.9415 12.2349 0.7395 13.2149 1.9445 11.1279"></polygon>
                    <polygon id="Fill-33" fill="#FFFFFF" points="48.6685 33.4702 46.3105 32.9692 45.1055 35.0562 44.8535 32.6592 42.4955 32.1582 44.6975 31.1782 44.4455 28.7802 46.0585 30.5722 48.2605 29.5912 47.0555 31.6782"></polygon>
                    <polygon id="Fill-35" fill="#FFFFFF" points="51.6343 22.4033 49.3413 23.1483 49.3413 25.5583 47.9243 23.6083 45.6323 24.3533 47.0493 22.4033 45.6323 20.4533 47.9243 21.1973 49.3413 19.2473 49.3413 21.6583"></polygon>
                    <polygon id="Fill-37" fill="#FFFFFF" points="7.3657 22.4033 9.6587 21.6583 9.6587 19.2473 11.0757 21.1973 13.3677 20.4533 11.9507 22.4033 13.3677 24.3533 11.0757 23.6083 9.6587 25.5583 9.6587 23.1483"></polygon>
                    <path d="M38.917,22.5405 C38.917,27.7415 34.701,31.9575 29.5,31.9575 C24.299,31.9575 20.083,27.7415 20.083,22.5405 C20.083,17.3395 24.299,13.1235 29.5,13.1235 C34.701,13.1235 38.917,17.3395 38.917,22.5405" id="Fill-39" fill="#FFFFFF"></path>
                </g>
            </g>
        </g>
    </g>
</svg>