<svg xmlns="http://www.w3.org/2000/svg" id="zwift-icon" x="0px" y="0px" viewBox="0 0 26 25" style="enable-background:new 0 0 26 25;" xml:space="preserve">
  <defs>
    <style type="text/css">
      .st2{fill:#f9d843;}
    </style>
  </defs>
  <path class="st2" d="M6.80931 7.93779l-3.20487-.03346C1.69794 7.79651.127215 6.11229.0264796 4.20499-.0891793 2.04487 1.45543.386665 3.21643.0669229c.27609-.0520512.56337-.06320496.84319-.06320496L25.893 0c-3.3093 5.39473-9.8907 16.1247-9.8907 16.1247l3.19.0297c1.8766.1079 3.4847 1.6843 3.6264 3.5172.1567 2.0226-1.0819 3.822-2.9623 4.2719-.3582.0855-.735.1115-1.1044.1115-4.9099.0075-9.81605 0-14.72596.0075-1.55953.0037-2.7497-.6581-3.499616-1.9928-.76111-1.3534-.679029-2.7364.130583-4.06L6.80931 7.93779z"></path>
</svg>